<?xml version="1.0" standalone="no"?><!DOCTYPE svg PUBLIC "-//W3C//DTD SVG 1.1//EN" "http://www.w3.org/Graphics/SVG/1.1/DTD/svg11.dtd"><svg t="1769669128755" class="icon" viewBox="0 0 1024 1024" version="1.1" xmlns="http://www.w3.org/2000/svg" p-id="21826" xmlns:xlink="http://www.w3.org/1999/xlink" width="200" height="200"><path d="M772.866721 593.802008h248.434337c1.919894-17.791021 2.687852-36.008686 2.687852-54.61033 0-87.333863-22.654754-169.249358-62.247243-239.773479 40.957747-112.420484 39.464496-207.860568-15.316491-264.945428-52.050471-53.586386-191.861448-44.882865-349.847425 27.475822-11.732688-0.938615-23.50804-1.407923-35.411386-1.407923-216.905404 0-398.868729 154.35951-449.169962 362.305407C180.088658 332.781697 251.594058 267.462623 347.247464 219.891906c-8.703521 8.447535-59.431398 60.583335-67.964262 69.414849-252.146132 260.678996-331.672425 601.140271-246.130463 689.668735 65.063088 67.238969 182.90194 55.890259 318.275828-12.713968a448.487333 448.487333 0 0 0 209.695134 51.879814c193.184042 0 358.337625-122.190613 427.837802-296.047718a20.393545 20.393545 0 0 0-19.369601-27.731808h-220.873186c-34.430106 65.703053-101.797068 110.457925-179.14748 110.457925-77.350412 0-144.717374-44.754872-179.190144-110.457925a217.417375 217.417375 0 0 1-24.105341-99.74918v-0.810622h406.59097z m-406.206991-126.286388c5.759683-105.679521 90.747009-190.026882 194.463971-190.026882 103.759627 0 188.746952 84.347361 194.506635 190.026882H366.65973z m577.504237-379.840442c35.283393 36.861973 34.387442 104.698242 4.266432 189.429581a468.283578 468.283578 0 0 0-215.58281-182.517961c94.842784-42.024355 171.979874-47.613381 211.316378-6.91162zM98.429149 962.165748c-45.010858-46.546773-31.443604-144.333395 26.579871-262.129583a477.285749 477.285749 0 0 0 197.151824 249.415615c-100.43181 47.186738-182.60329 55.164966-223.731695 12.713968z" fill="#bfcbd9" p-id="21827"></path></svg>