<svg xmlns="http://www.w3.org/2000/svg" xmlns:xlink="http://www.w3.org/1999/xlink" fill="none" version="1.1" width="200" height="50" viewBox="0 0 200 50"><g><g><rect x="0" y="0" width="200" height="50" rx="0" fill-opacity="0" stroke-opacity="1" stroke="#979797" fill="none" stroke-width="0"/></g><g><g><g><path d="M29.000998676755565,25.208179C29.001008791255565,25.138578,29.001018901355565,25.069008,29.001018901355565,24.999472C29.001018901355565,24.802195,29.000764970555565,24.604506,29.000510643455563,24.406509C28.994296499955563,19.568704,28.987845732355563,14.5467272,32.679463976355564,10.8550105C36.53587907635556,6.9984893338,41.74273477635556,6.99924605701,46.79129877635556,6.999979774473C46.860897776355564,6.999989889423,46.93046577635556,7,47.00000077635556,7C47.06953477635557,7,47.13910377635557,6.999989889639,47.20870077635556,6.99997977489C52.25726577635557,6.99924606638,57.46411577635557,6.9984892713,61.32053377635557,10.8550105C65.01215377635558,14.546723799999999,65.00570377635557,19.568703,64.99948877635556,24.406507C64.99923777635556,24.604506,64.99898177635556,24.802195,64.99898177635556,24.999472C64.99898177635556,25.196756,64.99923777635556,25.394453,64.99948877635556,25.592459C65.00570377635557,30.430254,65.01215777635556,35.452219,61.32053377635557,39.143936C57.46411577635557,43.000454,52.25725977635557,42.999699,47.208702776355565,42.998962C47.13910377635557,42.998955,47.06953477635557,42.998943,47.00000077635556,42.998943C46.802728776355565,42.998943,46.60504577635557,42.999199,46.40705377635557,42.999451C41.56937977635556,43.005665,36.547538176355566,43.012115,32.855924276355566,39.320396C28.999508296485565,35.463877,29.000264988155564,30.25688,29.000998676755565,25.208179ZM39.789022776355566,27.350491Q39.15076277635556,27.30455,38.54954377635556,27.011337Q37.68839877635556,26.62262,37.02531757635556,25.914974Q36.36223637635557,25.207325,35.99800147635556,24.288303Q35.62033877635557,23.335392,35.62033877635557,22.295082Q35.62033877635557,21.25477,35.99800147635556,20.301861000000002Q36.36223637635557,19.382837000000002,37.02531757635556,18.67519Q37.68839877635556,17.967543,38.54954377635556,17.578828Q39.44244277635556,17.175781,40.41723777635556,17.175781L48.70871777635556,17.175781L46.503723776355564,20.709715L40.30422977635556,20.709715C39.51795377635557,20.709715,38.88055267635556,21.408259,38.88055267635556,22.269956999999998C38.88055267635556,23.131657,39.51795377635557,23.8302,40.30422977635556,23.8302Q42.72257877635556,23.795618,43.302610776355564,23.886719Q43.88264477635556,23.977819,44.40144477635556,24.168795Q45.23823177635556,24.546511,45.882522776355565,25.23411Q46.52682177635556,25.921707,46.88075077635557,26.814732Q47.247745776355565,27.740723,47.247745776355565,28.751562Q47.247745776355565,29.7624,46.88075077635557,30.688393Q46.52682177635556,31.581415,45.882522776355565,32.269016Q45.23823177635556,32.956612,44.40144477635556,33.334334999999996Q43.53376977635556,33.725992000000005,42.58659377635556,33.725992000000005L33.577190776355565,33.725834L35.578859276355566,30.493435L42.84215277635556,30.49325C43.62842577635556,30.49325,44.265827776355565,29.794704,44.265827776355565,28.93301C44.265827776355565,28.071308,43.62842577635556,27.372765,42.84215277635556,27.372765Q40.427280776355566,27.396427,39.789022776355566,27.350491ZM59.921022776355564,20.710284L48.31262577635556,20.710284L50.51507977635556,17.181641L61.008724776355564,17.181641L59.921022776355564,20.710284ZM46.65923377635556,33.726816C48.030796776355565,32.464226,48.821964776355564,30.635113,48.821964776355564,28.731476C48.821964776355564,26.935488,48.11675877635557,25.202271,46.87765177635556,23.949678L58.924781776355566,23.949375L57.84190577635556,27.483307L52.01344577635557,27.483307L50.512666776355566,33.726507L46.65923377635556,33.726816Z" fill-rule="evenodd" fill="#FFFFFF" fill-opacity="1"/></g></g><g><g><path d="M76,32.322884L95.797304,32.322884Q97.784046,32.322884,97.784046,30.312878L97.784046,29.201464L88.761898,29.201464L88.761898,26.76581L97.433445,26.76581L97.433445,23.833567000000002L88.761898,23.833567000000002L88.761898,22.603915L85.0455217,22.603915L85.0455217,23.833567000000002L76.35060155,23.833567000000002L76.35060155,26.76581L82.7782965,26.76581Q85.0455217,26.76581,85.0455217,28.444752L85.0455217,29.201464L76,29.201464L76,32.322884ZM96.101156,10.28376547L76.35060155,10.28376547L76.35060155,13.2160087L91.403096,13.2160087L86.845276,16.7630768L83.3158851,14.067304100000001L78.1737299,14.067304100000001L83.9703431,19.009553Q83.6898603,19.2933187,83.2457652,19.2933187L76.02337344,19.2933187L76.04674688,22.225562L84.5079327,22.225562Q85.5597363,22.225562,86.728409,21.397911Q87.68672,22.225562,89.042378,22.225562L97.597057,22.225562L97.597057,19.2933187L90.912256,19.2933187Q90.281172,19.2933187,89.743582,19.009553L97.036098,13.2160087Q97.971033,11.1823559,96.101156,10.28376547ZM109.386246,12.4829478L100.410843,12.4829478L100.410843,15.5570726L106.955414,15.5570726Q109.386246,15.5570726,109.386246,17.6143732L109.386246,19.2223759L100.50433699999999,19.2223759L100.50433699999999,22.296504L107.00215299999999,22.296504Q109.386246,22.296504,109.386246,24.306506L109.386246,25.867218L100.317352,25.867218L100.317352,28.941343L106.908663,28.941343Q109.386246,28.941343,109.386246,31.093229L109.386246,32.322884L113.616844,32.322884L113.616844,28.941343L120.745743,28.941343Q122.381878,28.941343,122.381878,27.167809L122.381878,25.867218L113.616844,25.867218L113.616844,22.296504L122.335129,22.296504L122.335129,19.2223759L113.616844,19.2223759L113.616844,15.5570726L122.28837999999999,15.5570726L122.28837999999999,12.4829478L113.616844,12.4829478L113.616844,10L109.386246,10L109.386246,12.4829478ZM126.224091,14.8240123L124.728195,20.522969Q124.33085299999999,22.769446000000002,126.130608,23.384271L127.486271,23.384271Q129.099037,23.384271,129.099037,24.661214L129.099037,25.512513L124.704826,25.512513L124.704826,28.586637L127.159035,28.586637Q129.099037,28.586637,129.099037,30.005463L129.099037,32.322884L132.581673,32.322884L132.581673,28.586637L134.381428,28.586637L134.381428,25.512513L132.581673,25.512513L132.581673,23.384271L134.381428,23.384271L134.381428,20.310144L132.581673,20.310144L132.581673,16.1955457L129.192524,16.1955457L129.543125,14.8240123L134.474922,14.8240123L134.474922,11.7498868L130.43132,11.7498868L130.87542,10L127.299278,10L126.901928,11.7498868L124.89181099999999,11.7498868L124.89181099999999,14.8240123L126.224091,14.8240123ZM129.028904,20.381086L128.234219,20.381086L129.028904,16.7157822L129.028904,20.381086ZM135.339733,10.21282414L134.872265,12.8613019Q134.778778,15.273307299999999,137.209618,15.273307299999999L141.744057,15.273307299999999Q143.076347,15.273307299999999,143.076347,16.7630768L143.076347,19.6480246L146.372009,19.6480246L146.372009,14.8713069Q146.395363,12.199182,143.824303,12.199182L138.565262,12.199182L138.869133,10.21282414L135.339733,10.21282414ZM137.513462,16.4556642L137.513462,19.624378200000002L134.545036,32.228291L137.232979,32.228291Q138.401657,32.228291,138.565262,31.306053L140.294914,23.857212L140.762383,23.857212Q141.206467,23.880859,141.346718,24.51933L143.006226,32.299234L146.699234,32.299234L144.40863000000002,22.343795999999998Q144.12815899999998,21.279677,142.725739,21.303324L140.692253,21.303324L141.019478,19.7189665L141.042862,16.479311L137.513462,16.4556642ZM162.368408,23.786269L155.91734300000002,23.786269L155.91734300000002,26.860395L160.38166,26.860395Q162.368408,26.860395,162.368408,29.083225L162.368408,32.322884L166.131538,32.322884L166.131538,26.860395L171.01657899999998,26.860395L171.01657899999998,23.786269L166.131538,23.786269L166.131538,16.8340187L170.665977,16.8340187L170.665977,13.7598917L166.131538,13.7598917L166.131538,10L162.368408,10L162.368408,13.7598917L159.98432200000002,13.7598917L160.521912,11.1823559L156.89901700000001,11.1823559Q156.618538,13.6180093,155.333,15.3678956L155.356369,19.789907499999998Q157.343117,19.0332003,158.93250999999998,16.8340187L160.405037,16.8340187Q162.368408,16.8340187,162.368408,19.009553L162.368408,23.786269ZM155.379753,10.18917695L151.89711,10.18917695Q151.07904100000002,14.6584821,148.952057,16.0773096L148.975433,20.59391L150.377823,20.026381L150.377823,32.322884L151.663376,32.322884Q154.16433,32.322884,154.16433,30.241934L154.16433,18.702140800000002L151.850365,18.678493500000002Q154.538292,15.8644857,155.379753,10.18917695Z" fill="#FFFFFF" fill-opacity="1"/></g><g><g><path d="M163.09839482871095,41.76372764229307L162.38399222871095,40.62231734229307L162.22394232871093,40.38071414229307L161.83057592871094,40.367292142293074L161.83057592871094,41.52422144229307C161.83057592871094,41.76741404229307,161.64021182871093,41.964559542293074,161.40537932871095,41.964559542293074L159.56873616871093,41.964559542293074C159.33392077871093,41.964559542293074,159.14353942871094,41.76741404229307,159.14353942871094,41.52422144229307L159.14353942871094,37.70705237229307C159.14353942871094,37.46386071229307,159.33392077871093,37.26671504229307,159.56873616871093,37.26671504229307L162.96405432871094,37.26671504229307Q163.58412982871093,37.26671504229307,163.95417352871092,37.293559847293075Q164.32423352871095,37.32040463029307,164.67429592871093,37.40765039229307Q165.02431682871094,37.49489615229307,165.20102262871094,37.66603183229307Q165.37770322871094,37.83716749229307,165.48104282871094,38.12239384229307Q165.58439872871094,38.40762044229307,165.58439872871094,38.837137242293075Q165.58439872871094,39.474701442293075,165.34771532871093,39.80690644229307Q165.11100772871094,40.13911034229307,164.61093612871093,40.27333564229307L164.95098302871094,40.62231734229307L165.42485902871093,41.25409174229307C165.64185432871093,41.54336974229307,165.44279722871093,41.964559542293074,165.08907552871094,41.964559542293074L163.45519872871094,41.964559542293074C163.31108522871094,41.964559542293074,163.17677882871095,41.88896324229307,163.09839482871095,41.76372764229307ZM162.54399112871093,38.19286143229307L161.83057592871094,38.19286143229307L161.83057592871094,39.474701442293075L162.54399112871093,39.474701442293075Q162.92405862871092,39.474701442293075,163.08741642871092,39.33712224229307Q163.25074912871094,39.199542542293074,163.25074912871094,38.837137242293075Q163.25074912871094,38.46802074229307,163.08741642871092,38.33044124229307Q162.92405862871092,38.19286143229307,162.54399112871093,38.19286143229307Z" fill="#FFFFFF" fill-opacity="1"/></g><g><path d="M165.99588775634766,41.52422144229307C165.99588775634766,41.76741404229307,166.18626078634765,41.964559542293074,166.42108455634767,41.964559542293074L170.59136055634767,41.964559542293074C170.82618425634766,41.964559542293074,171.01655765634766,41.76741404229307,171.01655765634766,41.52422144229307L171.01655765634766,41.19016834229307C171.01655765634766,40.94697664229307,170.82618425634766,40.749830442293074,170.59136055634767,40.749830442293074L168.68291565634766,40.749830442293074L168.68291565634766,40.11226634229307L170.45133395634767,40.11226634229307C170.68615725634766,40.11226634229307,170.87653065634765,39.91512104229307,170.87653065634765,39.67192954229307L170.87653065634765,39.55934524229307C170.87653065634765,39.31615404229307,170.68615725634766,39.11900834229307,170.45133395634767,39.11900834229307L168.68291565634766,39.11900834229307L168.68291565634766,38.481443242293075L170.52465155634766,38.481443242293075C170.75949145634766,38.481443242293075,170.94985625634766,38.28429784229307,170.94985625634766,38.041105982293075L170.94985625634766,37.70705222229307C170.94985625634766,37.46386071229307,170.75949145634766,37.26671504229307,170.52465155634766,37.26671504229307L166.42108455634767,37.26671504229307C166.18626078634765,37.26671504229307,165.99588775634766,37.46386071229307,165.99588775634766,37.70705237229307L165.99588775634766,41.52422144229307Z" fill="#FFFFFF" fill-opacity="1"/></g><g><path d="M152.03224062615234,41.96455950504017C151.73538891615235,41.96455950504017,151.52990868715236,41.65754070504017,151.63407661215234,41.369681805040166L153.01557600615234,37.552511175040166C153.07779700615234,37.380608425040165,153.23646510615234,37.26671500504017,153.41373240615235,37.26671500504017L156.92484140615235,37.26671500504017C157.10210890615235,37.26671500504017,157.26076890615235,37.38060896504017,157.32299710615234,37.55251215504017L158.70448110615234,41.36968320504017C158.80867190615234,41.65754120504017,158.60316900615234,41.96455950504017,158.30633400615235,41.96455950504017L156.54167560615235,41.96455950504017C156.35746530615233,41.96455950504017,156.19420910615236,41.84172200504017,156.13728900615234,41.660291105040166L156.03272820615234,41.32699390504017L154.16581960615235,41.32699390504017L154.06125850615234,41.66028300504017C154.00433800615235,41.84171670504017,153.84108110615233,41.96455950504017,153.65686300615235,41.96455950504017L152.03224062615234,41.96455950504017ZM155.71240090615234,40.32757560504017L154.48555750615233,40.32757560504017L154.97230550615234,38.78399810504017L155.09230900615233,38.34776970504017L155.09899190615235,38.34776970504017L155.22568650615236,38.78399810504017L155.71240090615234,40.32757560504017Z" fill-rule="evenodd" fill="#FFFFFF" fill-opacity="1"/></g><g><path d="M142.94866514300782,37.26671504229307C142.6593330630078,37.26671504229307,142.45450606200782,37.559477802293074,142.5446135330078,37.844200302293075L143.75274028300782,41.66137074229307C143.8099869830078,41.84225034229307,143.9729842830078,41.964559542293074,144.1567917830078,41.964559542293074L145.9380805830078,41.964559542293074C146.12643578300782,41.964559542293074,146.29234768300782,41.83621314229307,146.3457924830078,41.64915894229307L146.84243778300782,39.910930642293074L146.9157724830078,39.58879254229307L146.92244628300782,39.58879254229307L147.0024542830078,39.910930642293074L147.5050882830078,41.65045784229307C147.5589513830078,41.836861142293074,147.7245788830078,41.964559542293074,147.91244788300781,41.964559542293074L149.56140618300782,41.964559542293074C149.7452053830078,41.964559542293074,149.9082107830078,41.84225034229307,149.9654655830078,41.66137074229307L151.1735839830078,37.84420018229307C151.26369948300783,37.559477802293074,151.05887318300782,37.26671504229307,150.7695331830078,37.26671504229307L149.4705705830078,37.26671504229307C149.28053238300782,37.26671504229307,149.11355588300782,37.39732521229307,149.0615772830078,37.58664091229307L148.5893339830078,39.306921442293074L148.51598358300782,39.64248154229307L148.50264358300782,39.64248154229307L148.4226431830078,39.306921442293074L147.8962011830078,37.57484927229307C147.84047078300782,37.39145542229307,147.67628428300782,37.26671504229307,147.49062588300782,37.26671504229307L146.4942593830078,37.26671504229307C146.3086099830078,37.26671504229307,146.14441518300782,37.39145542229307,146.08867598300782,37.57484927229307L145.56225058300782,39.306921442293074L145.4755766830078,39.64248154229307L145.46891048300782,39.64248154229307L145.39556888300783,39.306921442293074L144.92331648300782,37.58663799229307C144.8713373830078,37.39732378229307,144.7043704830078,37.26671504229307,144.5143158830078,37.26671504229307L142.94866514300782,37.26671504229307Z" fill="#FFFFFF" fill-opacity="1"/></g><g><path d="M136.13351440429688,37.70701691229307L136.13351440429688,38.03436672229307C136.13351440429688,38.27755844229307,136.32388739429686,38.47465054229307,136.55871534429687,38.47465054229307L137.90042500429686,38.47465054229307L137.90042500429686,41.52425624229307C137.90042500429686,41.76744844229307,138.09078970429687,41.96453904229307,138.32562610429687,41.96453904229307L139.98612020429687,41.96453904229307C140.22094340429686,41.96453904229307,140.4113173042969,41.76744844229307,140.4113173042969,41.52425624229307L140.4113173042969,38.47465054229307L141.68634840429687,38.47465054229307C141.9211807042969,38.47465054229307,142.11156180429688,38.27755844229307,142.11156180429688,38.03436672229307L142.11156180429688,37.70701691229307C142.11156180429688,37.46382542229307,141.9211807042969,37.26673330377907,141.68634840429687,37.26673330377907L136.55871534429687,37.26673330377907C136.32388739429686,37.26673330377907,136.13351440429688,37.463825482293075,136.13351440429688,37.70701691229307Z" fill="#FFFFFF" fill-opacity="1"/></g><g><path d="M123.66433141784961,40.23624628452263Q123.64767074584961,39.96444198452263,123.64767074584961,39.61545918452263Q123.64767074584961,39.266476384522626,123.66433141784961,38.99467288452263Q123.68099627284961,38.72286898452263,123.7376693638496,38.49133228452263Q123.79435081584961,38.25979578452263,123.85768988584961,38.08865985452263Q123.9210498058496,37.91752430452263,124.0543937958496,37.77994480452263Q124.18772947584961,37.64236462452263,124.31776147584961,37.551763594522626Q124.44776827584961,37.46116212452263,124.67446484584961,37.39069449452263Q124.90116134584962,37.320226804522626,125.11452174584961,37.28331530852263Q125.32788654584961,37.24640377652263,125.66793344584961,37.22627001952263Q126.00797584584961,37.20613658252263,126.3246793458496,37.19942522422263Q126.6413874458496,37.19271418452263,127.11479064584961,37.19271418452263Q127.58819004584961,37.19271418452263,127.90488054584961,37.19942522422263Q128.2215971458496,37.20613658252263,128.5616436458496,37.22627001952263Q128.90168614584962,37.24640377652263,129.1150512458496,37.28331530852263Q129.3284120458496,37.320226804522626,129.5551333458496,37.39069449452263Q129.7818174458496,37.46116212452263,129.9118237458496,37.551763594522626Q130.04184344584962,37.64236462452263,130.1751871458496,37.77994480452263Q130.30854084584962,37.91752430452263,130.37188724584962,38.08865985452263Q130.43521734584962,38.25979578452263,130.4919076458496,38.49133228452263Q130.5485811458496,38.72286898452263,130.5652418458496,38.99467288452263Q130.5819182458496,39.266476384522626,130.5819182458496,39.61545918452263Q130.5819182458496,39.96444198452263,130.5652418458496,40.23624628452263Q130.5485811458496,40.50804898452263,130.4919076458496,40.74294138452263Q130.43521734584962,40.97783438452263,130.37188724584962,41.14561408452263Q130.30854084584962,41.31339448452263,130.1751871458496,41.45433038452263Q130.04184344584962,41.59526388452263,129.91514874584962,41.68586628452263Q129.78847074584962,41.77646728452263,129.5584545458496,41.84357878452263Q129.3284120458496,41.910691184522626,129.1150512458496,41.94760318452263Q128.90168614584962,41.98451468452263,128.5583109458496,42.00464868452263Q128.2149391458496,42.02478218452263,127.90156074584961,42.03149318452263Q127.58819004584961,42.03820418452263,127.11479064584961,42.03820418452263Q126.6413874458496,42.03820418452263,126.3280127458496,42.03149318452263Q126.01464174584962,42.02478218452263,125.6712660458496,42.00464868452263Q125.32788654584961,41.98451468452263,125.11452174584961,41.94760318452263Q124.90116134584962,41.910691184522626,124.6711401458496,41.84357878452263Q124.4410939858496,41.77646728452263,124.31442433584961,41.68586628452263Q124.18772947584961,41.59526388452263,124.0543937958496,41.45433038452263Q123.9210498058496,41.31339448452263,123.85768988584961,41.14561408452263Q123.79435081584961,40.97783438452263,123.7376693638496,40.74294138452263Q123.68099627284961,40.50804898452263,123.66433141784961,40.23624628452263ZM126.46851894584961,40.96100228452263Q126.33517074584961,40.66235208452263,126.33517074584961,39.61540458452263Q126.33517074584961,38.57516808452263,126.46851894584961,38.27651938452263Q126.6018672458496,37.97787043452263,127.1152706458496,37.97787043452263Q127.6286697458496,37.97787043452263,127.76203014584961,38.27651938452263Q127.89536194584961,38.57516808452263,127.89536194584961,39.61540458452263Q127.89536194584961,40.66235208452263,127.76203014584961,40.96100228452263Q127.6286697458496,41.25964968452263,127.1152706458496,41.25964968452263Q126.6018672458496,41.25964968452263,126.46851894584961,40.96100228452263Z" fill-rule="evenodd" fill="#FFFFFF" fill-opacity="1"/></g><g><path d="M107.70121765136719,41.42097096455279C107.70121765136719,41.70088156455279,107.92233813136718,41.927793564552786,108.19510418136718,41.927793564552786L112.1566677513672,41.927793564552786C112.3914980513672,41.927793564552786,112.58186435136719,41.73064806455278,112.58186435136719,41.48745546455278L112.58186435136719,41.160113364552785C112.58186435136719,40.916921964552785,112.3914980513672,40.71977546455278,112.1566677513672,40.71977546455278L110.38824345136719,40.71977546455278L110.38824345136719,37.670286244552784C110.38824345136719,37.42709473455278,110.19787695136719,37.229949064552784,109.96304465136718,37.229949064552784L108.12641644136718,37.229949064552784C107.8915864213672,37.229949064552784,107.70121765136719,37.42709473455278,107.70121765136719,37.67028639455278L107.70121765136719,41.42097096455279Z" fill="#FFFFFF" fill-opacity="1"/></g><g><g><path d="M100.00457664076843,39.98663981966146Q100.00457644076843,40.03421308966146,99.98186304076843,40.080872199661464Q99.95914964076843,40.12753136966146,99.91459534076843,40.171483359661465Q99.87004114076844,40.21543534966146,99.80535864076843,40.25499101966147Q99.74067594076843,40.29454680966146,99.65835074076843,40.32818623966146Q99.57602524076843,40.361825609661466,99.47922084076843,40.38825591966147Q99.38241664076843,40.414686169661465,99.27485334076843,40.43289168966147Q99.16729024076844,40.45109720966146,99.05310174076843,40.46037824966147Q98.93891334076844,40.46965940966147,98.82248774076844,40.46965940966147Q98.70606204076843,40.46965940966147,98.59187353076844,40.46037824966147Q98.47768497076844,40.45109720966146,98.37012178076843,40.43289168966147Q98.26255858076843,40.414686169661465,98.16575420076843,40.38825591966147Q98.06894988076843,40.361825609661466,97.98662457076843,40.32818623966146Q97.90429923076843,40.29454680966146,97.83961663076843,40.25499101966147Q97.77493404076843,40.21543534966146,97.73037989476843,40.171483359661465Q97.68582574976843,40.12753136966146,97.66311224576843,40.08087225966146Q97.64039874076843,40.03421308966146,97.64039874076843,39.98663981966146Q97.64039874076843,39.939066519661466,97.66311224576843,39.89240734966147Q97.68582574976843,39.84574814966147,97.73037989476843,39.80179618966147Q97.77493404076843,39.757844229661465,97.83961663076843,39.71828849966146Q97.90429923076843,39.678732779661466,97.98662457076843,39.64509338966146Q98.06894988076843,39.611453999661464,98.16575426076844,39.58502370166146Q98.26255858076843,39.55859340766146,98.37012184076843,39.540387902661465Q98.47768503076843,39.52218239966147,98.59187353076844,39.51290131456147Q98.70606204076843,39.503620229661465,98.82248774076844,39.503620229661465Q98.93891334076844,39.503620229661465,99.05310174076843,39.51290131456147Q99.16729024076844,39.52218239966147,99.27485344076844,39.540387902661465Q99.38241674076843,39.55859340766146,99.47922094076843,39.58502370166146Q99.57602524076843,39.611453999661464,99.65835074076843,39.64509338966146Q99.74067594076843,39.678732779661466,99.80535844076843,39.71828849966146Q99.87004114076844,39.757844229661465,99.91459514076843,39.80179621966146Q99.95914934076843,39.84574817966146,99.98186304076843,39.89240734966147Q100.00457644076843,39.939066519661466,100.00457664076843,39.98663981966146Z" fill="#FFFFFF" fill-opacity="1"/></g><g><path d="M95.75959777832031,39.06798733100729L95.75959777832031,41.49075543100729C95.75959777832031,41.73394803100729,95.94996659832032,41.93109353100729,96.18479764832031,41.93109353100729L98.02141857832031,41.93109353100729C98.25625277832032,41.93109353100729,98.44662137832032,41.73394803100729,98.44662137832032,41.49075543100729L98.44662137832032,40.21973523100729L98.44662137832032,39.21976563100729L98.44662137832032,38.75934203100729C98.44661517832031,38.47666043100729,98.66144487832031,38.24404603100729,98.93413807832032,38.23145928100729L100.16729547832031,38.17454096100729C100.3945383783203,38.16405197100729,100.57355977832032,37.97020974100729,100.57356217832032,37.73464390100729L100.57356217832032,37.67358961100729C100.57356407832032,37.43039683100729,100.38319587832031,37.23324903100729,100.14836357832031,37.23324903100729L97.5312623783203,37.23324903100729C96.55279999832031,37.23324903100729,95.75959777832031,38.05468943100729,95.75959777832031,39.06798733100729Z" fill="#FFFFFF" fill-opacity="1"/></g></g><g><path d="M88.83385181427002,37.67358636100729L88.83385181427002,41.49075633100729C88.83385181427002,41.73394803100729,89.02422061427002,41.93109353100729,89.25905224427002,41.93109353100729L90.95565721427002,41.93109353100729C91.19048811427002,41.93109353100729,91.38085671427002,41.73394803100729,91.38085671427002,41.49075633100729L91.38085671427002,40.33382613100729L91.36752201427002,39.91773133100729L91.38752321427002,39.91773133100729L91.64755841427002,40.34053743100729L92.63371371427002,41.749215431007286C92.71369531427001,41.86346323100729,92.84170341427001,41.93109353100729,92.97796391427002,41.93109353100729L94.92284731427002,41.93109353100729C95.15767861427003,41.93109353100729,95.34804581427002,41.73394803100729,95.34804581427002,41.49075633100729L95.34804581427002,37.67358621100729C95.34804581427002,37.43039470100729,95.15767861427003,37.23324903100729,94.92284731427002,37.23324903100729L93.22624301427003,37.23324903100729C92.99141261427002,37.23324903100729,92.80104331427002,37.43039473100729,92.80104331427002,37.67358621100729L92.80104331427002,38.64260213100729L92.80771161427002,39.06540853100729L92.78104281427002,39.06540853100729L92.49433831427002,38.64260213100729L91.54853991427002,37.40087800100729C91.46791001427002,37.29501888500729,91.34489031427002,37.23324903100729,91.21469851427003,37.23324903100729L89.25905224427002,37.23324903100729C89.02422061427002,37.23324903100729,88.83385181427002,37.43039470100729,88.83385181427002,37.67358636100729Z" fill="#FFFFFF" fill-opacity="1"/></g><g><path d="M81.92806673049927,40.22986086455278Q81.92806673049927,40.88755976455278,82.23143890049927,41.26674226455278Q82.53481269049927,41.645925064552785,83.23823933049927,41.827128464552786Q83.94166563049927,42.00833136455278,85.16849493049926,42.00833136455278Q86.40199133049927,42.00833136455278,87.10874893049927,41.827128464552786Q87.81551213049927,41.645925064552785,88.11888413049927,41.26674226455278Q88.42225643049926,40.88755976455278,88.42225643049926,40.22986086455278L88.42225643049926,37.670288664552785C88.42225643049926,37.427097354552785,88.23188923049926,37.229951783634085,87.99705693049927,37.22995146472958L86.16503813049927,37.229949064552784C85.93020583049926,37.229949064552784,85.73983763049927,37.42709448455278,85.73983763049927,37.670286244552784L85.73983763049927,40.22985896455278Q85.73984983049927,40.65938236455278,85.61983513049927,40.870785064552784Q85.49980383049927,41.08218156455278,85.16849493049926,41.082183464552784Q84.91505743049927,41.08218746455278,84.79504033049926,40.870785064552784Q84.67503743049927,40.659376964552784,84.67503743049927,40.22985896455278L84.67503743049927,37.670286184552786C84.67503743049927,37.42709448455278,84.48466823049927,37.229949064552784,84.24983693049927,37.229949064552784L82.35326642049927,37.22995148990658C82.11843498049927,37.229951783634085,81.92806673049927,37.427097354552785,81.92806673049927,37.670288574552785L81.92806673049927,40.22986086455278Z" fill="#FFFFFF" fill-opacity="1"/></g><g><g><path d="M135.21577306334532,40.02042297236093Q135.21577286334534,40.067996242360934,135.19305946334535,40.114655352360934Q135.17034606334533,40.16131452236093,135.12579176334535,40.205266512360936Q135.08123756334533,40.24921850236093,135.01655506334535,40.28877417236094Q134.95187236334533,40.32832996236093,134.86954716334535,40.36196939236093Q134.78722166334535,40.395608762360936,134.69041726334532,40.42203907236094Q134.59361306334534,40.448469322360936,134.48604976334533,40.46667484236094Q134.37848666334534,40.48488036236093,134.26429816334533,40.49416140236094Q134.15010976334534,40.50344256236094,134.03368416334533,40.50344256236094Q133.91725846334535,40.50344256236094,133.80306995334533,40.49416140236094Q133.68888139334533,40.48488036236093,133.58131820334535,40.46667484236094Q133.47375500334533,40.448469322360936,133.37695062334532,40.42203907236094Q133.28014630334533,40.395608762360936,133.19782099334535,40.36196939236093Q133.11549565334533,40.32832996236093,133.05081305334534,40.28877417236094Q132.98613046334535,40.24921850236093,132.94157631734532,40.205266512360936Q132.89702217234534,40.16131452236093,132.87430866834535,40.11465541236093Q132.85159516334534,40.067996242360934,132.85159516334534,40.02042297236093Q132.85159516334534,39.97284967236094,132.87430866834535,39.92619050236094Q132.89702217234534,39.87953130236094,132.94157631734532,39.83557934236094Q132.98613046334535,39.791627382360936,133.05081305334534,39.75207165236093Q133.11549565334533,39.71251593236094,133.19782099334535,39.67887654236093Q133.28014630334533,39.645237152360934,133.37695068334534,39.61880685436093Q133.47375500334533,39.59237656036093,133.58131826334534,39.574171055360935Q133.68888145334535,39.55596555236094,133.80306995334533,39.54668446726094Q133.91725846334535,39.537403382360935,134.03368416334533,39.537403382360935Q134.15010976334534,39.537403382360935,134.26429816334533,39.54668446726094Q134.37848666334534,39.55596555236094,134.48604986334533,39.574171055360935Q134.59361316334534,39.59237656036093,134.69041736334535,39.61880685436093Q134.78722166334535,39.645237152360934,134.86954716334535,39.67887654236093Q134.95187236334533,39.71251593236094,135.01655486334533,39.75207165236093Q135.08123756334533,39.791627382360936,135.12579156334533,39.83557937236093Q135.17034576334532,39.87953133236093,135.19305946334535,39.92619050236094Q135.21577286334534,39.97284967236094,135.21577306334532,40.02042297236093Z" fill="#FFFFFF" fill-opacity="1"/></g><g><path d="M130.99357223510742,41.58742959623728C130.99357223510742,41.83861209623728,131.1805554351074,42.042234896237275,131.41121098510743,42.042234896237275L133.2151718351074,42.042234896237275C133.44582723510743,42.042234896237275,133.63281063510743,41.83861209623728,133.63281063510743,41.58742959623728L133.63281063510743,40.274646596237275L133.63281063510743,39.24182089623728L133.63280893510742,38.76626879623728C133.63280753510742,38.47429959623728,133.84381703510743,38.23404189623728,134.11166073510742,38.22104169623728L135.32288603510742,38.162253056237276C135.54608583510742,38.151419676237275,135.72192673510742,37.95120809623728,135.72192813510742,37.70790222623728L135.72192813510742,37.64484197623728C135.72193053510742,37.39365846623728,135.53494643510743,37.19003299623728,135.30428933510743,37.19003299623728L132.73373353510743,37.19003299623728C131.77266889510742,37.19003299623728,130.99357223510742,38.03846344623728,130.99357223510742,39.08505529623728L130.99357223510742,41.58742959623728Z" fill="#FFFFFF" fill-opacity="1"/></g></g><g><path d="M100.98515892028809,37.60339278L100.98515892028809,40.2025077Q100.98515892028809,40.8703666,101.27966863028809,41.2554078Q101.57418001028809,41.6404481,102.25705722028809,41.8244505Q102.93993442028808,42.0084519,104.13092472028809,42.0084519Q105.32838632028809,42.0084519,106.01449962028809,41.8244505Q106.70061442028809,41.6404481,106.99512432028808,41.2554078Q107.28963472028809,40.8703666,107.28963472028809,40.2025077L107.28963472028809,37.60339278C107.28963472028809,37.35644448,107.10482692028809,37.1562533079587,106.87685632028808,37.156252996243L105.09835572028808,37.15625056441331C104.87038352028809,37.15625025269651,104.68557622028808,37.35644165,104.68557622028808,37.60339046L104.68557622028808,40.2025058Q104.68558832028809,40.6386647,104.56907942028809,40.8533332Q104.45255522028809,41.0679953,104.13092472028809,41.0679975Q103.88489052028808,41.068002,103.76837992028808,40.8533332Q103.65188262028809,40.6386585,103.65188262028809,40.2025058L103.65188262028809,37.60339046C103.65188262028809,37.35644165,103.46707442028809,37.15625024675839,103.23910282028808,37.15625055114998L101.39793730028809,37.1562530095061C101.16996594028808,37.1562533138979,100.98515892028809,37.35644448,100.98515892028809,37.60339278Z" fill="#FFFFFF" fill-opacity="1"/></g><g><path d="M81.5164156,40.7936134C81.5164156,41.069663,81.4739103,41.2675099,81.3891263,41.387033C81.3040018,41.5061855,81.1616774,41.6175671,80.961926,41.7205615C80.7618337,41.8235555,80.4821577,41.8970704,80.1223326,41.9417224C79.7625072,41.9862504,79.3328207,42.0084519,78.8332701,42.0084519C78.2935886,42.0084519,77.8488659,41.9848933,77.499102,41.9380217C77.149225,41.891274,76.87181008,41.8117151,76.66719717,41.6994696C76.46224481,41.5871005,76.31223285,41.4547505,76.21750037,41.3026633C76.155099,41.202876599999996,76.11338507,40.8434458,76.092019387,40.6073604C76.081393078,40.4901805,76.2814844,40.3933544,76.53199416,40.3933544L77.883232,40.3933544C78.1265073,40.3933544,78.3235464,40.4857409,78.3235464,40.5995889L78.3235464,40.8425815C78.3235464,41.0066338,78.3460419,41.1190012,78.3910341,41.1798115C78.4360271,41.2407441,78.5532551,41.2709637,78.7433984,41.2709637C79.0629797,41.2709637,79.222939,41.1400936,79.222939,40.8778586C79.222939,40.709244,79.2027042,40.5829372,79.1630249,40.4985688C79.1230075,40.4144459,79.0030649,40.3255141,78.8031993,40.23177C77.8738495,39.9182236,77.2342354,39.6841121,76.88447142,39.5296824C76.29482374,39.272258,76,38.8930911,76,38.392058C76,38.2143159,76.02249614,38.05976254,76.067488424,37.92852199C76.11248072,37.79765153,76.20495228,37.67344171,76.34490317,37.55650914C76.54476839,37.40195616,76.82455701,37.29649492,77.1843823,37.24037227C77.5439811,37.184249645,78.0237484,37.15625,78.6233442,37.15625C79.2027042,37.15625,79.6600883,37.172778424,79.9950428,37.205341879C80.329772,37.238275386,80.6069603,37.31080309,80.8269482,37.42304832C81.0467081,37.53541699,81.1916342,37.67812878,81.26161,37.85130721C81.2845578,37.91088349,81.3010635,38.11193824,81.3108974,38.2715485C81.3179069,38.3876178,81.1187201,38.4834577,80.870584,38.4834577L79.5283899,38.4834577C79.285228,38.4834577,79.0880759,38.3909479,79.0880759,38.277099L79.0880759,38.2657514C79.0880759,38.13919795,79.082989,38.06198281,79.0730405,38.03398335C79.0330219,37.92630178,78.9082196,37.87239939,78.6982934,37.87239939C78.4083307,37.87239939,78.2636316,37.9988296,78.2636316,38.2516898C78.2636316,38.4481808,78.331007,38.5887957,78.4659841,38.673041C78.600848,38.7571635,79.0179875,38.9046857,79.7176285,39.1154848C80.4871311,39.3447862,80.9917688,39.5882719,81.2316532,39.845449C81.4213443,40.0468738,81.5164156,40.3628879,81.5164156,40.7936134Z" fill="#FFFFFF" fill-opacity="1"/></g><g><path d="M123.23600101870117,40.827396396237276C123.23600101870117,41.10344599623728,123.19349571870117,41.30129289623728,123.10871171870117,41.42081599623728C123.02358721870117,41.53996849623728,122.88126281870117,41.65135009623728,122.68151141870118,41.75434449623728C122.48141911870117,41.857338496237276,122.20174311870117,41.930853396237275,121.84191801870116,41.97550539623728C121.48209261870117,42.02003339623728,121.05240611870117,42.042234896237275,120.55285551870116,42.042234896237275C120.01317401870118,42.042234896237275,119.56845131870118,42.01867629623728,119.21868741870117,41.97180469623728C118.86881041870117,41.92505699623728,118.59139549870117,41.84549809623728,118.38678258870117,41.73325259623728C118.18183022870117,41.620883496237276,118.03181826870117,41.48853349623728,117.93708578870117,41.33644629623728C117.87468441870118,41.236659596237274,117.83297048870118,40.877228796237276,117.81160480570117,40.641143396237275C117.80097849670118,40.52396349623728,118.00106981870117,40.42713739623728,118.25157957870117,40.42713739623728L119.60281741870118,40.42713739623728C119.84609271870117,40.42713739623728,120.04313181870117,40.51952389623728,120.04313181870117,40.63337189623728L120.04313181870117,40.87636449623728C120.04313181870117,41.04041679623728,120.06562731870117,41.15278419623728,120.11061951870117,41.21359449623728C120.15561251870118,41.27452709623728,120.27284051870117,41.30474669623728,120.46298381870118,41.30474669623728C120.78256511870117,41.30474669623728,120.94252441870117,41.17387659623728,120.94252441870117,40.91164159623728C120.94252441870117,40.743026996237276,120.92228961870117,40.61672019623728,120.88261031870117,40.53235179623728C120.84259291870117,40.448228896237275,120.72265031870117,40.35929709623728,120.52278471870117,40.265552996237275C119.59343491870118,39.952006596237275,118.95382081870117,39.71789509623728,118.60405683870117,39.56346539623728C118.01440915870117,39.30604099623728,117.71958541870117,38.92687409623728,117.71958541870117,38.42584099623728C117.71958541870117,38.24809889623728,117.74208155870117,38.09354553623728,117.78707384270118,37.96230498623728C117.83206613870117,37.83143452623728,117.92453769870117,37.70722470623728,118.06448858870117,37.59029213623728C118.26435380870117,37.435739156237275,118.54414242870118,37.33027791623728,118.90396771870117,37.27415526623728C119.26356651870117,37.21803264123728,119.74333381870117,37.19003299623728,120.34292961870118,37.19003299623728C120.92228961870117,37.19003299623728,121.37967371870117,37.20656142023728,121.71462821870116,37.23912487523728C122.04935741870118,37.272058382237276,122.32654571870117,37.34458608623728,122.54653361870118,37.45683131623728C122.76629351870118,37.56919998623728,122.91121961870117,37.71191177623728,122.98119541870118,37.88509020623728C123.00414321870117,37.94466648623728,123.02064891870117,38.14572123623728,123.03048281870117,38.30533149623728C123.03749231870117,38.42140079623728,122.83830551870118,38.51724069623728,122.59016941870117,38.51724069623728L121.24797531870117,38.51724069623728C121.00481341870118,38.51724069623728,120.80766131870118,38.42473089623728,120.80766131870118,38.31088199623728L120.80766131870118,38.29953439623728C120.80766131870118,38.17298094623728,120.80257441870117,38.09576580623728,120.79262591870118,38.06776634623728C120.75260731870117,37.96008477623728,120.62780501870117,37.906182386237276,120.41787881870117,37.906182386237276C120.12791611870117,37.906182386237276,119.98321701870117,38.03261259623728,119.98321701870117,38.28547279623728C119.98321701870117,38.48196379623728,120.05059241870117,38.62257869623728,120.18556951870117,38.706823996237276C120.32043341870117,38.790946496237275,120.73757291870118,38.93846869623728,121.43721391870118,39.149267796237275C122.20671651870117,39.37856919623728,122.71135421870117,39.62205489623728,122.95123861870117,39.87923199623728C123.14092971870117,40.08065679623728,123.23600101870117,40.396670896237275,123.23600101870117,40.827396396237276Z" fill="#FFFFFF" fill-opacity="1"/></g></g></g></g></g></svg>