<svg xmlns="http://www.w3.org/2000/svg" xmlns:xlink="http://www.w3.org/1999/xlink" fill="none" version="1.1" width="50" height="50" viewBox="0 0 50 50"><g><g><rect x="0" y="0" width="50" height="50" rx="0" fill-opacity="0" stroke-opacity="1" stroke="#979797" fill="none" stroke-width="0"/></g><g><g><path d="M7.0009986767555645,25.208179C7.001008791255565,25.138578,7.001018901355565,25.069008,7.001018901355565,24.999472C7.001018901355565,24.802195,7.000764970555565,24.604506,7.000510643455565,24.406509C6.994296499955564,19.568704,6.987845732355565,14.5467272,10.679463976355564,10.8550105C14.535879076355565,6.9984893338,19.742734776355565,6.99924605701,24.791298776355564,6.999979774473C24.860897776355564,6.999989889423,24.930465776355565,7,25.000000776355563,7C25.069534776355564,7,25.139103776355565,6.999989889639,25.208700776355563,6.99997977489C30.257265776355563,6.99924606638,35.46411577635557,6.9984892713,39.32053377635557,10.8550105C43.01215377635557,14.546723799999999,43.00570377635557,19.568703,42.99948877635556,24.406507C42.999237776355564,24.604506,42.99898177635556,24.802195,42.99898177635556,24.999472C42.99898177635556,25.196756,42.999237776355564,25.394453,42.99948877635556,25.592459C43.00570377635557,30.430254,43.012157776355565,35.452219,39.32053377635557,39.143936C35.46411577635557,43.000454,30.257259776355564,42.999699,25.208702776355565,42.998962C25.139103776355565,42.998955,25.069534776355564,42.998943,25.000000776355563,42.998943C24.802728776355565,42.998943,24.605045776355563,42.999199,24.407053776355564,42.999451C19.569379776355564,43.005665,14.547538176355564,43.012115,10.855924276355564,39.320396C6.999508296485565,35.463877,7.000264988155565,30.25688,7.0009986767555645,25.208179ZM17.789022776355566,27.350491Q17.150762776355563,27.30455,16.549543776355563,27.011337Q15.688398776355564,26.62262,15.025317576355565,25.914974Q14.362236376355565,25.207325,13.998001476355565,24.288303Q13.620338776355565,23.335392,13.620338776355565,22.295082Q13.620338776355565,21.25477,13.998001476355565,20.301861000000002Q14.362236376355565,19.382837000000002,15.025317576355565,18.67519Q15.688398776355564,17.967543,16.549543776355563,17.578828Q17.442442776355563,17.175781,18.417237776355563,17.175781L26.708717776355563,17.175781L24.503723776355564,20.709715L18.304229776355562,20.709715C17.517953776355565,20.709715,16.880552676355563,21.408259,16.880552676355563,22.269956999999998C16.880552676355563,23.131657,17.517953776355565,23.8302,18.304229776355562,23.8302Q20.722578776355565,23.795618,21.302610776355564,23.886719Q21.882644776355562,23.977819,22.401444776355564,24.168795Q23.238231776355565,24.546511,23.882522776355565,25.23411Q24.526821776355565,25.921707,24.880750776355566,26.814732Q25.247745776355565,27.740723,25.247745776355565,28.751562Q25.247745776355565,29.7624,24.880750776355566,30.688393Q24.526821776355565,31.581415,23.882522776355565,32.269016Q23.238231776355565,32.956612,22.401444776355564,33.334334999999996Q21.533769776355562,33.725992000000005,20.586593776355564,33.725992000000005L11.577190776355565,33.725834L13.578859276355566,30.493435L20.842152776355565,30.49325C21.628425776355563,30.49325,22.265827776355565,29.794704,22.265827776355565,28.93301C22.265827776355565,28.071308,21.628425776355563,27.372765,20.842152776355565,27.372765Q18.427280776355566,27.396427,17.789022776355566,27.350491ZM37.921022776355564,20.710284L26.312625776355564,20.710284L28.515079776355563,17.181641L39.008724776355564,17.181641L37.921022776355564,20.710284ZM24.659233776355563,33.726816C26.030796776355565,32.464226,26.821964776355564,30.635113,26.821964776355564,28.731476C26.821964776355564,26.935488,26.116758776355564,25.202271,24.877651776355563,23.949678L36.924781776355566,23.949375L35.84190577635556,27.483307L30.013445776355564,27.483307L28.512666776355566,33.726507L24.659233776355563,33.726816Z" fill-rule="evenodd" fill="#FFFFFF" fill-opacity="1"/></g></g></g></svg>