<svg xmlns="http://www.w3.org/2000/svg" xmlns:xlink="http://www.w3.org/1999/xlink" fill="none" version="1.1" width="14" height="14" viewBox="0 0 14 14"><defs><clipPath id="master_svg0_1082_235138"><rect x="0" y="0" width="14" height="14" rx="0"/></clipPath></defs><g clip-path="url(#master_svg0_1082_235138)"><path d="M7,2C4.2385762,2,2,4.2385762,2,7C2,9.761425,4.2385762,12,7,12C9.761425,12,12,9.761425,12,7C12,4.2385762,9.761425,2,7,2ZM7.7833333,8.839167100000001C7.4058332,9.405833699999999,7.021667,9.843333699999999,6.375833,9.843333699999999C5.935833000000001,9.7708335,5.7541666,9.4541664,5.8499999,9.1333337L6.6800003,6.3816671C6.7008333,6.3141675,6.6675,6.2425003,6.6058335,6.2200003C6.5450001,6.1983337,6.4250002,6.2783337,6.3200002,6.3916674L5.8191667,6.9958344C5.8050003,6.895834,5.8166664,6.7275004,5.8166664,6.6600008C6.1949997,6.0933342,6.8141665,5.645834,7.2350001,5.645834C7.6350002,5.6875007,7.8233333,6.0066676,7.7541666,6.3575006L6.916667,9.122499900000001C6.9058337,9.1850004,6.939167,9.247499900000001,6.9950004,9.2683334C7.0566669,9.2900004,7.186667,9.21,7.2900004,9.095833800000001L7.791667,8.4925003C7.8050008,8.5941677,7.7825003,8.7725005,7.7825003,8.839167100000001L7.7833333,8.839167100000001ZM7.6716666,5.2458336C7.3511672,5.2555119999999995,7.0883851,4.9938725999999996,7.0966668,4.673333599999999C7.088872,4.3531203000000005,7.3515043,4.092010500000001,7.6716666,4.1016667C7.9918294,4.0920106999999994,8.2544613,4.3531203000000005,8.246666900000001,4.673333599999999C8.2549481,4.9938725999999996,7.992167,5.2555125,7.6716666,5.2458336Z" fill="#FF6900" fill-opacity="1" style="mix-blend-mode:passthrough"/></g></svg>