<svg xmlns="http://www.w3.org/2000/svg" xmlns:xlink="http://www.w3.org/1999/xlink" fill="none" version="1.1" width="230" height="80" viewBox="0 0 230 80"><path d="M4,55.155952L50.2551,55.155952Q54.896992,55.155952,54.896992,50.459705L54.896992,47.862957L33.817335,47.862957L33.817335,42.172215L54.077835,42.172215L54.077835,35.32122L33.817335,35.32122L33.817335,32.448221000000004L25.134266,32.448221000000004L25.134266,35.32122L4.81915754,35.32122L4.81915754,42.172215L19.837044,42.172215Q25.134266,42.172215,25.134266,46.094955L25.134266,47.862957L4,47.862957L4,55.155952ZM50.965031,3.66299939L4.81915754,3.66299939L4.81915754,10.5139928L39.988323,10.5139928L29.339275,18.801485L21.093084,12.5029898L9.0787768,12.5029898L22.622181,24.05023Q21.966854,24.713228,20.929255,24.713228L4.054610506,24.713228L4.10922101,31.564222L23.878223,31.564222Q26.335697,31.564222,29.066219,29.630472Q31.305252,31.564222,34.472660000000005,31.564222L54.460102,31.564222L54.460102,24.713228L38.841507,24.713228Q37.36702,24.713228,36.110977,24.05023L53.149456,10.5139928Q55.33387,5.7624969,50.965031,3.66299939ZM82.004768,8.8012443L61.034332,8.8012443L61.034332,15.983735L76.325287,15.983735Q82.004768,15.983735,82.004768,20.790483L82.004768,24.547478L61.252773,24.547478L61.252773,31.729975L76.434494,31.729975Q82.004768,31.729975,82.004768,36.426212L82.004768,40.072712L60.815895,40.072712L60.815895,47.255207L76.216057,47.255207Q82.004768,47.255207,82.004768,52.282951L82.004768,55.155952L91.889275,55.155952L91.889275,47.255207L108.54549,47.255207Q112.3682,47.255207,112.3682,43.111458L112.3682,40.072712L91.889275,40.072712L91.889275,31.729975L112.25899,31.729975L112.25899,24.547478L91.889275,24.547478L91.889275,15.983735L112.14976,15.983735L112.14976,8.8012443L91.889275,8.8012443L91.889275,3L82.004768,3L82.004768,8.8012443ZM121.34529,14.270988L117.85023,27.586227Q116.92185,32.834972,121.12686,34.271471L124.29429,34.271471Q128.06241,34.271471,128.06241,37.254967L128.06241,39.243969L117.79563,39.243969L117.79563,46.426456L123.52972,46.426456Q128.06241,46.426456,128.06241,49.741451L128.06241,55.155952L136.19936,55.155952L136.19936,46.426456L140.40436,46.426456L140.40436,39.243969L136.19936,39.243969L136.19936,34.271471L140.40436,34.271471L140.40436,27.088978L136.19936,27.088978L136.19936,17.475486L128.28082999999998,17.475486L129.09999,14.270988L140.62282,14.270988L140.62282,7.0884957L131.17520000000002,7.0884957L132.2128,3L123.85739,3L122.92901,7.0884957L118.2325,7.0884957L118.2325,14.270988L121.34529,14.270988ZM127.89855,27.254726L126.04182,27.254726L127.89855,18.690984999999998L127.89855,27.254726ZM142.64339,3.4972496L141.55118,9.6852441Q141.33275,15.320738,147.01224,15.320738L157.60667,15.320738Q160.71947,15.320738,160.71947,18.801485L160.71947,25.541977L168.41957,25.541977L168.41957,14.381489Q168.47415,8.138244199999999,162.46703,8.138244199999999L150.17963,8.138244199999999L150.8896,3.4972496L142.64339,3.4972496ZM147.72217,18.083235000000002L147.72217,25.486729L140.78664,54.93494L147.06683,54.93494Q149.79736,54.93494,150.17963,52.780201L154.22084,35.376465L155.31305,35.376465Q156.35062,35.431717,156.67831,36.923462L160.55565,55.100697L169.18411,55.100697L163.83226,31.840469Q163.17696,29.354227,159.90031,29.409473L155.1492,29.409473L155.91374,25.707727L155.96837,18.138486L147.72217,18.083235000000002ZM205.79411,35.210716L190.72162,35.210716L190.72162,42.393208L201.15221,42.393208Q205.79411,42.393208,205.79411,47.586704L205.79411,55.155952L214.58643,55.155952L214.58643,42.393208L226,42.393208L226,35.210716L214.58643,35.210716L214.58643,18.967236L225.18083,18.967236L225.18083,11.7847404L214.58643,11.7847404L214.58643,3L205.79411,3L205.79411,11.7847404L200.22385,11.7847404L201.4799,5.7624969L193.01524,5.7624969Q192.35992,11.4532413,189.35634,15.541737L189.41095,25.873476Q194.05286,24.10548,197.76637,18.967236L201.20682,18.967236Q205.79411,18.967236,205.79411,24.05023L205.79411,35.210716ZM189.46556,3.44199952L181.32861,3.44199952Q179.41724,13.884238,174.44768,17.199236L174.50229,27.751976L177.7789,26.425978L177.7789,55.155952L180.7825,55.155952Q186.62582,55.155952,186.62582,50.293949L186.62582,23.331982L181.21939,23.276731Q187.49956,16.701987000000003,189.46556,3.44199952Z" fill="#FFFFFF" fill-opacity="1"/><path d="M207.500026725,76.3607450625L205.830871625,73.7411923625L205.456925425,73.1867098625L204.537850825,73.1559061625L204.537850825,75.8110751625C204.537850825,76.3692050625,204.093077225,76.8216560625,203.544406925,76.8216560625L199.253210005,76.8216560625C198.704579205,76.8216560625,198.259765625,76.3692050625,198.259765625,75.8110751625L198.259765625,67.0506192625C198.259765625,66.4924910925,198.704579205,66.0400390625,199.253210005,66.0400390625L207.186148625,66.0400390625Q208.634914625,66.0400390625,209.499497625,66.1016482595Q210.364118625,66.1632574025,211.182016625,66.3634876025Q211.999815625,66.5637178425,212.412679625,66.9564765725Q212.825482625,67.3492352625,213.066926625,68.0038337625Q213.308411625,68.6584324625,213.308411625,69.6441795625Q213.308411625,71.1073980625,212.755416625,71.8698134625Q212.202364625,72.6322255625,211.033980625,72.9402751625L211.828477625,73.7411923625L212.935658625,75.1911229625C213.442652625,75.8550205625,212.977569625,76.8216560625,212.151121625,76.8216560625L208.333675625,76.8216560625C207.996963525,76.8216560625,207.683165525,76.6481620625,207.500026725,76.3607450625ZM206.204698525,68.1655578625L204.537850825,68.1655578625L204.537850825,71.1073980625L206.204698525,71.1073980625Q207.092701925,71.1073980625,207.474375725,70.7916517625Q207.855991325,70.4759044625,207.855991325,69.6441795625Q207.855991325,68.7970523625,207.474375725,68.4813051625Q207.092701925,68.1655578625,206.204698525,68.1655578625Z" fill="#FFFFFF" fill-opacity="1"/><path d="M214.26950073242188,75.8110751625C214.26950073242188,76.3692050625,214.71429482242186,76.8216560625,215.26294523242188,76.8216560625L225.00652073242188,76.8216560625C225.55517073242189,76.8216560625,225.99996673242188,76.3692050625,225.99996673242188,75.8110751625L225.99996673242188,75.0444183625C225.99996673242188,74.4862899625,225.55517073242189,74.0338373625,225.00652073242188,74.0338373625L220.5475650324219,74.0338373625L220.5475650324219,72.5706186625L224.67935873242186,72.5706186625C225.22800773242187,72.5706186625,225.67280273242187,72.1181669625,225.67280273242187,71.5600390625L225.67280273242187,71.3016567625C225.67280273242187,70.7435297625,225.22800773242187,70.2910776625,224.67935873242186,70.2910776625L220.5475650324219,70.2910776625L220.5475650324219,68.8278572625L224.8506597324219,68.8278572625C225.39934873242188,68.8278572625,225.84412273242188,68.3754052625,225.84412273242188,67.8172769625L225.84412273242188,67.0506188625C225.84412273242188,66.4924910925,225.39934873242188,66.0400390625,224.8506597324219,66.0400390625L215.26294523242188,66.0400390625C214.71429482242186,66.0400390625,214.26950073242188,66.4924910925,214.26950073242188,67.0506192625L214.26950073242188,75.8110751625Z" fill="#FFFFFF" fill-opacity="1"/><g><path d="M181.644752145,76.8216560625C180.951177625,76.8216560625,180.471086515,76.1170440625,180.714468062,75.4564037625L183.942250925,66.6959452025C184.087626425,66.3014260225,184.458343725,66.0400390625,184.872517125,66.0400390625L193.075994625,66.0400390625C193.490167625,66.0400390625,193.860865625,66.3014272725,194.006258625,66.6959474725L197.234004625,75.4564065625C197.477439625,76.1170450625,196.997295625,76.8216560625,196.303760625,76.8216560625L192.180751625,76.8216560625C191.750357625,76.8216560625,191.368918625,76.5397420625,191.235929625,76.1233570625L190.991629625,75.3584356625L186.629719725,75.3584356625L186.38541982499999,76.1233390625C186.252428525,76.5397310625,185.870989825,76.8216560625,185.440576525,76.8216560625L181.644752145,76.8216560625ZM190.243392925,73.0641894625L187.376953125,73.0641894625L188.514207825,69.5216579625L188.794588125,68.5205078625L188.810202625,68.5205078625L189.106216425,69.5216579625L190.243392925,73.0641894625Z" fill-rule="evenodd" fill="#FFFFFF" fill-opacity="1"/></g><path d="M160.421928285,66.0400390625C159.745922835,66.0400390625,159.267357945,66.7119335525,159.477888159,67.3653757625L162.300597175,76.1258340625C162.434350475,76.5409550625,162.815182875,76.8216560625,163.244637275,76.8216560625L167.406501775,76.8216560625C167.846581475,76.8216560625,168.234223375,76.5271010625,168.359093675,76.09780806250001L169.519474375,72.1085500625L169.690814375,71.3692388625L169.706407375,71.3692388625L169.893341375,72.1085500625L171.06771237499999,76.1007880625C171.193560375,76.5285860625,171.580537375,76.8216560625,172.019481375,76.8216560625L175.872163375,76.8216560625C176.301599375,76.8216560625,176.682451375,76.5409550625,176.816223375,76.1258340625L179.638912375,67.3653753625C179.849462375,66.7119335525,179.370899375,66.0400390625,178.694873375,66.0400390625L175.659933375,66.0400390625C175.215920375,66.0400390625,174.825793375,66.3397912125,174.704347375,66.7742733325L173.600981375,70.72234106249999L173.429603375,71.4924559625L173.398435375,71.4924559625L173.211520375,70.72234106249999L171.981522375,66.7472113925C171.851311375,66.3263199325,171.467700375,66.0400390625,171.033922375,66.0400390625L168.705977475,66.0400390625C168.272219675,66.0400390625,167.888588875,66.3263199325,167.758357975,66.7472113925L166.528399975,70.72234106249999L166.325891975,71.4924559625L166.310316575,71.4924559625L166.138958475,70.72234106249999L165.035572075,66.7742666625C164.914125875,66.3397879325,164.524018775,66.0400390625,164.07996897499999,66.0400390625L160.421928285,66.0400390625Z" fill="#FFFFFF" fill-opacity="1"/><path d="M144.49801635742188,67.8018102625C144.49801635742188,68.3599383625,144.94281038742187,68.8122675625,145.49147057742186,68.8122675625L148.62628745742188,68.8122675625L148.62628745742188,75.8111543625C148.62628745742188,76.3692840625,149.07106205742187,76.8216100625,149.61974195742187,76.8216100625L153.49937725742188,76.8216100625C154.04802795742188,76.8216100625,154.49282265742187,76.3692840625,154.49282265742187,75.8111543625L154.49282265742187,68.8122675625L157.4718493574219,68.8122675625C158.02052035742187,68.8122675625,158.46533335742188,68.3599383625,158.46533335742188,67.8018102625L158.46533335742188,67.0505378625C158.46533335742188,66.4924100925,158.02052035742187,66.04008097286,157.4718493574219,66.04008097286L145.49147057742186,66.04008097286C144.94281038742187,66.04008097286,144.49801635742188,66.4924102425,144.49801635742188,67.0505378625L144.49801635742188,67.8018102625Z" fill="#FFFFFF" fill-opacity="1"/><g><path d="M115.365098447,72.8550648875Q115.326171875,72.2312702875,115.326171875,71.4303497875Q115.326171875,70.6294297875,115.365098447,70.0056371875Q115.404034793,69.3818435875,115.536447765,68.8504635875Q115.668880255,68.3190838875,115.816867855,67.9263248875Q115.964904185,67.5335663875,116.276453675,67.2178194875Q116.587983775,66.9020710875,116.891794875,66.6941404975Q117.195547475,66.4862089175,117.725208975,66.3244847375Q118.254870675,66.1627604075,118.75337317500001,66.0780480075Q119.251886175,65.9933355375,120.046382875,65.9471282885Q120.840870375,65.9009217755,121.580827675,65.8855191155Q122.320794575,65.8701171875,123.426870375,65.8701171875Q124.532937075,65.8701171875,125.272864375,65.8855191155Q126.012850875,65.9009217755,126.80734687500001,65.9471282885Q127.601835875,65.9933355375,128.100348875,66.0780480075Q128.598851875,66.1627604075,129.128571875,66.3244847375Q129.658202875,66.4862089175,129.961955875,66.6941404975Q130.265737875,66.9020710875,130.577286875,67.2178194875Q130.88885787499999,67.5335663875,131.036862875,67.9263248875Q131.184830875,68.3190838875,131.317282875,68.8504635875Q131.449697875,69.3818435875,131.488624875,70.0056371875Q131.527587875,70.6294297875,131.527587875,71.4303497875Q131.527587875,72.2312702875,131.488624875,72.8550648875Q131.449697875,73.4788560875,131.317282875,74.0179376875Q131.184830875,74.5570201875,131.036862875,74.9420766875Q130.88885787499999,75.3271350875,130.577286875,75.6505851875Q130.265737875,75.9740291875,129.969724875,76.1819631875Q129.673748875,76.38989318750001,129.136331875,76.5439161875Q128.598851875,76.6979401875,128.100348875,76.7826531875Q127.601835875,76.8673661875,126.799561875,76.9135721875Q125.997295875,76.9597791875,125.265107175,76.9751811875Q124.532937075,76.9905821875,123.426870375,76.9905821875Q122.320794575,76.9905821875,121.588615375,76.9751811875Q120.856444875,76.9597791875,120.054170175,76.9135721875Q119.251886175,76.8673661875,118.75337317500001,76.7826531875Q118.254870675,76.6979401875,117.717441275,76.5439161875Q117.179953375,76.38989318750001,116.883998075,76.1819631875Q116.587983775,75.9740291875,116.276453675,75.6505851875Q115.964904185,75.3271350875,115.816867855,74.9420766875Q115.668880255,74.5570201875,115.536447765,74.0179376875Q115.404034793,73.4788560875,115.365098447,72.8550648875ZM121.915074875,74.5191802875Q121.603515675,73.8337740875,121.603515675,71.4310149875Q121.603515675,69.0436579875,121.915074875,68.3582548875Q122.22663407499999,67.6728515875,123.426167475,67.6728515875Q124.625690475,67.6728515875,124.937279675,68.3582548875Q125.24880027500001,69.0436579875,125.24880027500001,71.4310149875Q125.24880027500001,73.8337740875,124.937279675,74.5191802875Q124.625690475,75.2045802875,123.426167475,75.2045802875Q122.22663407499999,75.2045802875,121.915074875,74.5191802875Z" fill-rule="evenodd" fill="#FFFFFF" fill-opacity="1"/></g><path d="M78.068359375,75.573531125C78.068359375,76.215929125,78.584992945,76.736695125,79.222292975,76.736695125L88.478227375,76.736695125C89.026892375,76.736695125,89.471671375,76.284244125,89.471671375,75.726114225L89.471671375,74.974859225C89.471671375,74.416731825,89.026892375,73.964277225,88.478227375,73.964277225L84.346420275,73.964277225L84.346420275,66.965657925C84.346420275,66.407530155,83.901640875,65.955078125,83.352970575,65.955078125L79.061808585,65.955078125C78.51314356500001,65.955078125,78.068359375,66.407530155,78.068359375,66.965658325L78.068359375,75.573531125Z" fill="#FFFFFF" fill-opacity="1"/><path d="M60.086247,72.28232073677215Q60.086247,72.33677973677216,60.0729475,72.39097633677216Q60.0596485,72.44517303677216,60.0331779,72.49858543677216Q60.0067081,72.55199803677216,59.9673214,72.60411183677216Q59.9279346,72.65622583677215,59.8760114,72.70653913677215Q59.8240881,72.75685263677215,59.7601285,72.80488113677215Q59.6961679,72.85290953677216,59.6207867,72.89819053677216Q59.545406299999996,72.94347153677215,59.4593306,72.98556873677215Q59.3732548,73.02766623677216,59.2773128,73.06617443677216Q59.1813712,73.10468283677216,59.0764875,73.13923103677216Q58.9716039,73.17377953677216,58.858788,73.20403513677215Q58.7459726,73.23429093677215,58.6263113,73.25996263677216Q58.5066504,73.28563443677216,58.3812964,73.30647483677215Q58.2559428,73.32731543677215,58.1261029,73.34312403677215Q57.9962633,73.35893283677215,57.863188,73.36955703677215Q57.730113,73.38018163677215,57.5950844,73.38551933677216Q57.4600556,73.39085733677216,57.3243735,73.39085733677216Q57.1886911,73.39085733677216,57.0536625,73.38551933677216Q56.9186335,73.38018143677216,56.7855585,73.36955673677215Q56.6524835,73.35893233677216,56.5226438,73.34312383677215Q56.3928041,73.32731523677215,56.2674501,73.30647453677216Q56.1420963,73.28563413677216,56.0224352,73.25996243677216Q55.9027743,73.23429073677215,55.7899587,73.20403493677216Q55.6771432,73.17377933677216,55.5722595,73.13923103677216Q55.46737576,73.10468283677216,55.37143397,73.06617443677216Q55.27549219,73.02766623677216,55.18941641,72.98556873677215Q55.10334051,72.94347153677215,55.02795956,72.89819053677216Q54.9525786,72.85290963677215,54.8886185,72.80488123677216Q54.82465839,72.75685273677216,54.77273507,72.70653923677216Q54.72081178,72.65622583677215,54.68142533,72.60411193677216Q54.642038889,72.55199803677216,54.615568615,72.49858543677216Q54.589098349,72.44517303677216,54.575799175,72.39097633677216Q54.5625,72.33677973677216,54.5625,72.28232073677215Q54.5625,72.22786183677215,54.575799175,72.17366516677215Q54.589098349,72.11946844677216,54.615568615,72.06605589677216Q54.642038889,72.01264345677215,54.68142533,71.96052950677216Q54.72081178,71.90841555677216,54.77273507,71.85810208677215Q54.82465839,71.80778860677215,54.8886185,71.75976019677215Q54.9525786,71.71173167677216,55.02795956,71.66645073677216Q55.10334051,71.62116986677215,55.18941641,71.57907253677216Q55.27549219,71.53697526677216,55.37143397,71.49846696677216Q55.46737576,71.45995873677215,55.5722595,71.42541032677215Q55.6771432,71.39086197677216,55.7899587,71.36060620677216Q55.9027743,71.33035047677215,56.0224353,71.30467872677215Q56.1420963,71.27900697677215,56.2674501,71.25816644777215Q56.3928041,71.23732592877215,56.5226438,71.22151734277216Q56.6524835,71.20570875677215,56.7855585,71.19508435177215Q56.9186335,71.18445994877216,57.0536625,71.17912204287215Q57.1886911,71.17378413677216,57.3243735,71.17378413677216Q57.4600556,71.17378413677216,57.5950842,71.17912204287215Q57.730113,71.18445994877216,57.863188,71.19508435177215Q57.996263,71.20570875677215,58.1261029,71.22151734277216Q58.2559423,71.23732592877215,58.3812962,71.25816644777215Q58.5066504,71.27900697677215,58.626311799999996,71.30467872677215Q58.7459726,71.33035048677216,58.858788,71.36060622677216Q58.9716039,71.39086198677215,59.0764875,71.42541032677215Q59.1813712,71.45995873677215,59.2773128,71.49846696677216Q59.3732548,71.53697526677216,59.4593306,71.57907253677216Q59.545406299999996,71.62116986677215,59.6207867,71.66645073677216Q59.6961679,71.71173167677216,59.7601285,71.75976019677215Q59.8240881,71.80778860677215,59.8760114,71.85810208677215Q59.9279346,71.90841555677216,59.9673214,71.96052956677215Q60.0067081,72.01264345677215,60.0331779,72.06605589677216Q60.0596485,72.11946844677216,60.072948,72.17366516677215Q60.086247,72.22786183677215,60.086247,72.28232073677215Z" fill="#FFFFFF" fill-opacity="1"/><path d="M50.16796875,75.73388273677216C50.16796875,76.29201263677216,50.612753,76.74446363677215,51.1614204,76.74446363677215L55.45256475,76.74446363677215C56.001239749999996,76.74446363677215,56.44602395,76.29201263677216,56.44602395,75.73388273677216L56.44602395,72.81687343677216L56.44602395,70.52192963677216L56.44602395,69.46525083677216C56.44600915,68.81649293677215,56.94794515,68.28263963677216,57.58507395,68.25375283677215L60.46626675,68.12312443677216C60.99720375,68.09905233677216,61.415476749999996,67.65418163677215,61.41548175,67.11355483677215L61.41548175,66.97343433677216C61.41548675,66.41530355677216,60.97070175,65.96284663677216,60.42203275,65.96284663677216L54.30734685,65.96284663677216C52.02123375,65.96284663677216,50.16796875,67.84806363677215,50.16796875,70.17359623677216L50.16796875,75.73388273677216Z" fill="#FFFFFF" fill-opacity="1"/><path d="M33.986328125,75.73388473677215C33.986328125,76.29201263677216,34.431112345,76.74446363677215,34.979781095,76.74446363677215L38.943787525,76.74446363677215C39.492455025,76.74446363677215,39.937238225,76.29201263677216,39.937238225,75.73388473677215L39.937238225,73.07871373677216L39.906083125,72.12377063677215L39.952814125,72.12377063677215L40.560369925,73.09411613677216L42.864457125,76.32705163677215C43.051328625,76.58925263677216,43.350411425000004,76.74446363677215,43.668774625,76.74446363677215L48.212867125,76.74446363677215C48.761535125,76.74446363677215,49.206317125,76.29201263677216,49.206317125,75.73388473677215L49.206317125,66.97342643677216C49.206317125,66.41529866677216,48.761535125,65.96284663677216,48.212867125,65.96284663677216L44.248862125,65.96284663677216C43.700196225,65.96284663677216,43.255411125,66.41529872677215,43.255411125,66.97342643677216L43.255411125,69.19733153677215L43.270991325,70.16767773677216L43.208681125,70.16767773677216L42.538815525000004,69.19733153677215L40.329019025,66.34755742677216C40.140632625,66.10460929677215,39.853205725,65.96284663677216,39.549020325,65.96284663677216L34.979781095,65.96284663677216C34.431112345,65.96284663677216,33.986328125,66.41529866677216,33.986328125,66.97342683677216L33.986328125,75.73388473677215Z" fill="#FFFFFF" fill-opacity="1"/><path d="M17.849609375,72.839916725Q17.849609375,74.349344225,18.558418575,75.219573925Q19.267231575,76.089804125,20.910741575,76.505668125Q22.554251675,76.921531125,25.420658075,76.921531125Q28.302641375,76.921531125,29.953934375,76.505668125Q31.605240375,76.089804125,32.314049374999996,75.219573925Q33.022859374999996,74.349344225,33.022859374999996,72.839916725L33.022859374999996,66.965663525C33.022859374999996,66.407536175,32.578077375,65.9550843653287,32.029407375,65.9550836334388L27.749015775,65.955078125C27.200345075,65.955078125,26.755562775,66.407529565,26.755562775,66.965657925L26.755562775,72.839912425Q26.755590474999998,73.825674525,26.475184475,74.310846325Q26.194739374999997,74.796004325,25.420658075,74.796009025Q24.828517875,74.796018625,24.548105675000002,74.310846325Q24.267726875,73.825662125,24.267726875,72.839912425L24.267726875,66.965657825C24.267726875,66.407529565,23.822941775,65.955078125,23.274273375,65.955078125L18.843060615,65.9550836912204C18.294392345,65.9550843653287,17.849609375,66.407536175,17.849609375,66.965663325L17.849609375,72.839916725Z" fill="#FFFFFF" fill-opacity="1"/><path d="M142.35382512500001,72.3595131625Q142.35382512500001,72.4139721625,142.340525625,72.4681687625Q142.327226625,72.5223654625,142.300756025,72.5757778625Q142.274286225,72.6291904625,142.234899525,72.6813042625Q142.19551272500001,72.7334182625,142.143589525,72.7837315625Q142.091666225,72.8340450625,142.027706625,72.8820735625Q141.963746025,72.9301019625,141.888364825,72.9753829625Q141.812984425,73.0206639625,141.726908725,73.0627611625Q141.640832925,73.1048586625,141.544890925,73.1433668625Q141.448949325,73.1818752625,141.344065625,73.2164234625Q141.239182025,73.2509719625,141.126366125,73.28122756249999Q141.013550725,73.3114833625,140.893889425,73.3371550625Q140.774228525,73.3628268625,140.648874525,73.3836672625Q140.523520925,73.4045078625,140.393681025,73.4203164625Q140.263841425,73.4361252625,140.130766125,73.4467494625Q139.997691125,73.4573740625,139.862662525,73.4627117625Q139.727633725,73.4680497625,139.591951625,73.4680497625Q139.456269225,73.4680497625,139.321240625,73.4627117625Q139.186211625,73.4573738625,139.053136625,73.4467491625Q138.920061625,73.4361247625,138.790221925,73.4203162625Q138.660382225,73.4045076625,138.535028225,73.3836669625Q138.409674425,73.3628265625,138.290013325,73.3371548625Q138.170352425,73.3114831625,138.057536825,73.2812273625Q137.944721325,73.2509717625,137.839837625,73.2164234625Q137.734953885,73.1818752625,137.639012095,73.1433668625Q137.543070315,73.1048586625,137.456994535,73.0627611625Q137.370918635,73.0206639625,137.295537685,72.9753829625Q137.220156725,72.9301020625,137.156196625,72.8820736625Q137.092236515,72.8340451625,137.040313195,72.7837316625Q136.988389905,72.7334182625,136.949003455,72.6813043625Q136.909617014,72.6291904625,136.88314674,72.5757778625Q136.856676474,72.5223654625,136.8433773,72.4681687625Q136.830078125,72.4139721625,136.830078125,72.3595131625Q136.830078125,72.3050542625,136.8433773,72.2508575925Q136.856676474,72.1966608725,136.88314674,72.1432483225Q136.909617014,72.0898358825,136.949003455,72.0377219325Q136.988389905,71.9856079825,137.040313195,71.9352945125Q137.092236515,71.8849810325,137.156196625,71.8369526225Q137.220156725,71.7889241025,137.295537685,71.7436431625Q137.370918635,71.6983622925,137.456994535,71.6562649625Q137.543070315,71.6141676925,137.639012095,71.5756593925Q137.734953885,71.5371511625,137.839837625,71.5026027525Q137.944721325,71.4680544025,138.057536825,71.4377986325Q138.170352425,71.4075429025,138.290013425,71.3818711525Q138.409674425,71.3561994025,138.535028225,71.3353588735Q138.660382225,71.3145183545,138.790221925,71.2987097685Q138.920061625,71.2829011825,139.053136625,71.2722767775Q139.186211625,71.2616523745,139.321240625,71.2563144686Q139.456269225,71.2509765625,139.591951625,71.2509765625Q139.727633725,71.2509765625,139.862662325,71.2563144686Q139.997691125,71.2616523745,140.130766125,71.2722767775Q140.263841125,71.2829011825,140.393681025,71.2987097685Q140.523520425,71.3145183545,140.648874325,71.3353588735Q140.774228525,71.3561994025,140.893889925,71.3818711525Q141.013550725,71.4075429125,141.126366125,71.4377986525Q141.239182025,71.4680544125,141.344065625,71.5026027525Q141.448949325,71.5371511625,141.544890925,71.5756593925Q141.640832925,71.6141676925,141.726908725,71.6562649625Q141.812984425,71.6983622925,141.888364825,71.7436431625Q141.963746025,71.7889241025,142.027706625,71.8369526225Q142.091666225,71.8849810325,142.143589525,71.9352945125Q142.19551272500001,71.9856079825,142.234899525,72.0377219925Q142.274286225,72.0898358825,142.300756025,72.1432483225Q142.327226625,72.1966608725,142.340526125,72.2508575925Q142.35382512500001,72.3050542625,142.35382512500001,72.3595131625Z" fill="#FFFFFF" fill-opacity="1"/><path d="M132.48828125,75.95536725C132.48828125,76.53183325,132.92515528,76.99915125,133.4640668,76.99915125L137.67890355,76.99915125C138.21781495,76.99915125,138.65468885,76.53183325,138.65468885,75.95536725L138.65468885,72.94251205L138.65468885,70.57216265L138.65468505,69.48076395C138.65468165,68.81069085,139.14769125,68.25929595,139.77349095,68.22946045L142.60343925,68.09453965C143.12493225,68.06967685,143.53577125,67.61018845,143.53577525,67.05179825L143.53577525,66.90707405C143.53578025,66.33060452,143.09890525,65.86328125,142.55999025,65.86328125L136.55405425,65.86328125C134.30858955,65.86328125,132.48828125,67.81044075,132.48828125,70.21238325L132.48828125,75.95536725Z" fill="#FFFFFF" fill-opacity="1"/><path d="M62.376953125,66.8123317125L62.376953125,72.7773361125Q62.376953125,74.3100815125,63.065055725,75.1937561125Q63.753162425,76.0774288125,65.348660225,76.4997168125Q66.944158125,76.9220028125,69.726829025,76.9220028125Q72.524620125,76.9220028125,74.127679125,76.4997168125Q75.730740125,76.0774288125,76.41884412499999,75.1937561125Q77.106948125,74.3100815125,77.106948125,72.7773361125L77.106948125,66.8123317125C77.106948125,66.2455818925,76.675156125,65.786140404311,76.142519125,65.7861396889189L71.987168325,65.7861341078362C71.454526925,65.78613339244197,71.022735625,66.2455754025,71.022735625,66.8123263125L71.022735625,72.7773318125Q71.022764225,73.7783227125,70.750548325,74.2709894125Q70.478297225,74.7636423125,69.726829025,74.7636471125Q69.151986625,74.7636576125,68.879766925,74.2709894125Q68.607578725,73.7783079125,68.607578725,72.7773318125L68.607578725,66.8123263125C68.607578725,66.2455754025,68.175786525,65.78613337881387,67.643146025,65.7861340773968L63.341382805,65.7861397193578C62.808742645,65.7861404179407,62.376953125,66.2455818925,62.376953125,66.8123317125Z" fill="#FFFFFF" fill-opacity="1"/><path d="M16.888744000000003,74.1339321125C16.888744000000003,74.7674694125,16.789433000000002,75.2215309125,16.591341,75.4958382125C16.392454,75.7692947125,16.059922,76.0249168125,15.593217,76.2612908125C15.125713,76.49766381250001,14.472269,76.6663808125,13.6315613,76.7688578125C12.7908525,76.8710498125,11.7869177,76.9220028125,10.6197505,76.9220028125C9.35882,76.9220028125,8.3197546,76.86793581250001,7.5025539000000006,76.7603648125C6.6850891,76.6530768125,6.0369275,76.4704898125,5.5588626,76.2128848125C5.0800048,75.9549958125,4.72951168,75.6512499125,4.50817543,75.3022079125C4.36237872,75.0731964125,4.26491681,74.2482977125,4.21499729,73.7064781125C4.19016962,73.4375491125,4.65766984,73.2153320125,5.2429696,73.2153320125L8.4000487,73.2153320125C8.968445299999999,73.2153320125,9.4288144,73.4273600125,9.4288144,73.6886430125L9.4288144,74.2463140125C9.4288144,74.6228161125,9.481374299999999,74.8807011125,9.5864954,75.0202618125C9.691618,75.1601028125,9.965514200000001,75.2294569125,10.4097714,75.2294569125C11.1564517,75.2294569125,11.5301867,74.9291086125,11.5301867,74.3272762125C11.5301867,73.9403028125,11.4829092,73.6504273125,11.390201600000001,73.4568000125C11.2967029,73.2637372125,11.016465199999999,73.0596375125,10.5494924,72.8444934125C8.3781271,72.1249003125,6.8837104,71.5876112125,6.0665097,71.2331924125C4.68883646,70.6424003125,4,69.7722070125,4,68.6223292125C4,68.2144084125,4.052560762,67.8597066125,4.1576823,67.5585075125C4.26280385,67.2581581125,4.47885764,66.9730949125,4.8058437099999995,66.7047330725C5.2728157,66.3500317925,5.9265235999999994,66.1079968225,6.7672322000000005,65.9791945825C7.6074109,65.8503923785,8.7283559,65.7861328125,10.129272,65.7861328125C11.4829092,65.7861328125,12.5515575,65.8240657705,13.334157,65.8987993425C14.116229,65.9743822025,14.763863,66.1408342725,15.277849,66.3984386325C15.791305,66.6563262925,16.129913000000002,66.9838518125,16.293408,67.3812986125C16.347025000000002,67.5180269125,16.385589,67.9794505125,16.408566,68.3457582125C16.424942,68.6121387125,15.959556,68.8320927125,15.379802,68.8320927125L12.2438526,68.8320927125C11.6757207,68.8320927125,11.2150874,68.6197815125,11.2150874,68.3584967125L11.2150874,68.3324535125C11.2150874,68.0420117125,11.2032022,67.8648021125,11.1799588,67.8005428125C11.0864577,67.5534123125,10.794865099999999,67.42970551249999,10.3043861,67.42970551249999C9.6269073,67.42970551249999,9.288827399999999,67.7198646125,9.288827399999999,68.3001821125C9.288827399999999,68.7511315125,9.4462457,69.0738449125,9.761611,69.2671890125C10.0767112,69.4602513125,11.0513306,69.7988167125,12.6859961,70.2826037125C14.483889,70.8088531125,15.662943,71.3676562125,16.223416,71.9578814125C16.666617000000002,72.4201541125,16.888744000000003,73.1454105125,16.888744000000003,74.1339321125Z" fill="#FFFFFF" fill-opacity="1"/><path d="M114.363353375,74.21108055C114.363353375,74.84461785,114.264042375,75.29867935,114.065950375,75.57298665C113.867063375,75.84644315,113.534531375,76.10206525,113.067826375,76.33843925C112.600322375,76.57481225000001,111.946878375,76.74352925,111.106170675,76.84600625C110.265461875,76.94819825,109.261527075,76.99915125,108.094359875,76.99915125C106.833429375,76.99915125,105.794363975,76.94508425000001,104.977163275,76.83751325C104.159698475,76.73022525,103.511536875,76.54763825,103.033471975,76.29003325C102.554614175,76.03214425,102.204121055,75.72839835,101.982784805,75.37935635C101.836988095,75.15034485,101.739526185,74.32544615,101.689606665,73.78362655C101.664778995,73.51469755,102.132279215,73.29248045,102.717578975,73.29248045L105.874658075,73.29248045C106.443054675,73.29248045,106.903423775,73.50450845,106.903423775,73.76579145L106.903423775,74.32346245C106.903423775,74.69996455,106.955983675,74.95784955,107.061104775,75.09741025C107.166227375,75.23725125,107.440123575,75.30660535,107.884380775,75.30660535C108.631061075,75.30660535,109.004796075,75.00625705,109.004796075,74.40442465C109.004796075,74.01745125,108.957518575,73.72757575,108.864810975,73.53394845C108.771312275,73.34088565,108.491074575,73.13678595,108.024101775,72.92164185C105.852736475,72.20204875,104.358319775,71.66475965,103.541119075,71.31034085C102.163445835,70.71954875,101.474609375,69.84935545,101.474609375,68.69947765C101.474609375,68.29155685,101.527170137,67.93685505,101.632291675,67.63565595C101.737413225,67.33530655,101.953467015,67.05024335,102.280453085,66.78188151C102.747425075,66.42718023,103.401132975,66.18514526,104.241841575,66.05634302C105.082020275,65.927540816,106.202965275,65.86328125,107.603881375,65.86328125C108.957518575,65.86328125,110.026166875,65.901214208,110.808766375,65.97594778C111.590838375,66.05153064,112.238472375,66.21798271,112.752458375,66.47558707C113.265914375,66.73347473,113.604522375,67.06100025,113.768017375,67.45844705C113.821634375,67.59517535,113.860198375,68.05659895,113.88317537500001,68.42290665C113.899551375,68.68928715,113.43416537499999,68.90924115,112.854411375,68.90924115L109.718461975,68.90924115C109.150330075,68.90924115,108.689696775,68.69692995,108.689696775,68.43564515L108.689696775,68.40960195C108.689696775,68.11916015,108.67781157499999,67.94195055,108.654568175,67.87769125C108.561067075,67.63056075,108.269474475,67.50685394999999,107.778995475,67.50685394999999C107.101516675,67.50685394999999,106.763436775,67.79701305,106.763436775,68.37733055C106.763436775,68.82827995,106.920855075,69.15099335,107.236220375,69.34433745C107.551320575,69.53739975,108.525939975,69.87596515,110.160605475,70.35975215C111.958498375,70.88600155,113.137552375,71.44480465,113.698025375,72.03502985C114.141226375,72.49730255,114.363353375,73.22255895,114.363353375,74.21108055Z" fill="#FFFFFF" fill-opacity="1"/></svg>