<svg xmlns="http://www.w3.org/2000/svg" xmlns:xlink="http://www.w3.org/1999/xlink" fill="none" version="1.1" width="340" height="340" viewBox="0 0 340 340"><defs><clipPath id="master_svg0_359_000038"><rect x="0" y="0" width="340" height="340" rx="0"/></clipPath><filter id="master_svg1_359_000001" filterUnits="objectBoundingBox" color-interpolation-filters="sRGB" x="-0.32994870668537446" y="-0.32994870668537446" width="1.659897413370749" height="1.659897413370749"><feFlood flood-opacity="0" result="BackgroundImageFix"/><feColorMatrix in="SourceAlpha" type="matrix" values="0 0 0 0 0 0 0 0 0 0 0 0 0 0 0 0 0 0 127 0"/><feOffset dy="0" dx="0"/><feGaussianBlur stdDeviation="5"/><feColorMatrix type="matrix" values="0 0 0 0 0.9529411792755127 0 0 0 0 0.4470588266849518 0 0 0 0 0.13725490868091583 0 0 0 0.20000000298023224 0"/><feBlend mode="normal" in2="BackgroundImageFix" result="effect1_dropShadow"/><feBlend mode="normal" in="SourceGraphic" in2="effect1_dropShadow" result="shape"/></filter><filter id="master_svg2_359_000010" filterUnits="objectBoundingBox" color-interpolation-filters="sRGB" x="-0.32994870668537446" y="-0.32994870668537446" width="1.659897413370749" height="1.659897413370749"><feFlood flood-opacity="0" result="BackgroundImageFix"/><feColorMatrix in="SourceAlpha" type="matrix" values="0 0 0 0 0 0 0 0 0 0 0 0 0 0 0 0 0 0 127 0"/><feOffset dy="0" dx="0"/><feGaussianBlur stdDeviation="5"/><feColorMatrix type="matrix" values="0 0 0 0 0.9529411792755127 0 0 0 0 0.4470588266849518 0 0 0 0 0.13725490868091583 0 0 0 0.20000000298023224 0"/><feBlend mode="normal" in2="BackgroundImageFix" result="effect1_dropShadow"/><feBlend mode="normal" in="SourceGraphic" in2="effect1_dropShadow" result="shape"/></filter><filter id="master_svg3_359_000015" filterUnits="objectBoundingBox" color-interpolation-filters="sRGB" x="-0.32994870668537446" y="-0.32994870668537446" width="1.659897413370749" height="1.659897413370749"><feFlood flood-opacity="0" result="BackgroundImageFix"/><feColorMatrix in="SourceAlpha" type="matrix" values="0 0 0 0 0 0 0 0 0 0 0 0 0 0 0 0 0 0 127 0"/><feOffset dy="0" dx="0"/><feGaussianBlur stdDeviation="5"/><feColorMatrix type="matrix" values="0 0 0 0 0.9529411792755127 0 0 0 0 0.4470588266849518 0 0 0 0 0.13725490868091583 0 0 0 0.20000000298023224 0"/><feBlend mode="normal" in2="BackgroundImageFix" result="effect1_dropShadow"/><feBlend mode="normal" in="SourceGraphic" in2="effect1_dropShadow" result="shape"/></filter><filter id="master_svg4_359_000029" filterUnits="objectBoundingBox" color-interpolation-filters="sRGB" x="-0.20000001525879021" y="-0.20000001525879021" width="1.4000000305175804" height="1.4000000305175804"><feFlood flood-opacity="0" result="BackgroundImageFix"/><feColorMatrix in="SourceAlpha" type="matrix" values="0 0 0 0 0 0 0 0 0 0 0 0 0 0 0 0 0 0 127 0"/><feOffset dy="0" dx="0"/><feGaussianBlur stdDeviation="5"/><feColorMatrix type="matrix" values="0 0 0 0 0.9529411792755127 0 0 0 0 0.4470588266849518 0 0 0 0 0.13725490868091583 0 0 0 0.20000000298023224 0"/><feBlend mode="normal" in2="BackgroundImageFix" result="effect1_dropShadow"/><feBlend mode="normal" in="SourceGraphic" in2="effect1_dropShadow" result="shape"/></filter></defs><g clip-path="url(#master_svg0_359_000038)"><g style="opacity:0.30000001192092896;"><ellipse cx="173.21514892578125" cy="155.71026611328125" rx="145.71026611328125" ry="145.71026611328125" fill-opacity="0" stroke-opacity="0.30000001192092896" stroke="#FFFFFF" fill="none" stroke-width="2"/></g><ellipse cx="172.57136726379395" cy="303.0148334503174" rx="30.307741165161133" ry="30.307741165161133" fill="#FFFFFF" fill-opacity="1" filter="url(#master_svg1_359_000001)"/><g><path d="M188.1993713486328,297.31531711015623L184.1449433486328,297.24246931015625C181.28092234863283,292.9246122101562,177.5625723486328,291.15533447265625,172.51505134863282,291.15533447265625C166.5433233486328,291.15533447265625,161.77309034863282,293.29493761015624,158.9783029486328,296.41046191015624L155.4249501486328,297.1682854101563C151.8286910486328,297.9848518101563,149.4862823486328,299.81594181015623,149.5037519276328,302.62889091015626L149.4862823486328,304.76483191015626C149.4862823486328,307.35745591015626,151.48538644863282,309.50873991015624,154.81732604863282,309.97081791015626C155.0063242486328,306.88617191015624,157.56732464863282,304.44315391015624,160.69947834863282,304.44315391015624C163.84573334863282,304.44315391015624,166.4159393486328,306.90824491015627,166.5842533486328,310.01253691015626L178.2569503486328,309.98863191015624C178.4371913486328,306.89562491015624,181.0021003486328,304.44315391015624,184.14038834863283,304.44315391015624C187.2022663486328,304.44315391015624,189.71848334863282,306.77784191015627,190.00635934863283,309.76424991015625C191.30430634863282,309.36952791015625,192.4426493486328,308.40592791015627,192.4426493486328,306.84336491015625L192.4426493486328,301.15214251015624C192.4426493486328,298.8261142101563,190.9744073486328,297.53940251015626,188.1993713486328,297.31531711015623ZM170.66916234863282,298.91555021015625C171.0349843486328,298.8871927101562,171.39590834863282,298.85972691015627,171.7511903486328,298.83295301015625L172.2048533486328,293.43658451015625C171.7568303486328,293.43801951015627,171.2880213486328,293.45400451015627,170.79659634863282,293.4851332101563C165.49955334863282,293.8209648101562,161.13220734863282,296.18292141015627,160.8015223486328,297.52164551015625C160.7261503486328,297.82684371015625,166.0810963486328,299.27122691015626,170.66916234863282,298.91555021015625ZM173.8267383486328,293.50396731015627L173.4042513486328,298.71079301015624C173.6356353486328,298.69384671015627,173.86339334863283,298.67721601015626,174.08716734863282,298.66087581015626C177.78044334863282,298.39119291015624,180.38833234863282,298.2007651101562,180.30434034863282,297.97949601015625C179.30243634863282,295.34079741015626,177.36969734863283,293.83064341015626,173.8267383486328,293.50396731015627ZM160.6426593486328,313.7698459101563Q160.8272753486328,313.7698459101563,161.01100134863282,313.75175091015626Q161.19472834863282,313.73365391015625,161.3757953486328,313.69763591015624Q161.55686334863282,313.6616209101563,161.73353134863282,313.60802991015623Q161.9101963486328,313.55443791015625,162.08075934863282,313.48378791015625Q162.2513213486328,313.41313891015625,162.4141383486328,313.32611491015626Q162.57695534863282,313.23908591015623,162.73045734863283,313.1365169101563Q162.88396034863283,313.03395091015625,163.02667034863282,312.91683191015625Q163.1693803486328,312.79971291015625,163.2999233486328,312.66916991015626Q163.43046634863282,312.53862791015626,163.54758534863282,312.39591791015624Q163.66470434863282,312.2532079101562,163.76727034863282,312.0997049101563Q163.8698383486328,311.94620491015627,163.95686534863282,311.78338791015625Q164.04389234863282,311.62057091015623,164.11454134863283,311.4500069101563Q164.18519134863283,311.27944591015626,164.2387833486328,311.10277891015625Q164.29237334863282,310.92611291015623,164.3283893486328,310.74504491015625Q164.36440634863283,310.5639759101563,164.3825033486328,310.38025091015624Q164.4005983486328,310.19652391015626,164.4005983486328,310.01190791015625Q164.4005983486328,309.82729291015625,164.3825033486328,309.6435639101563Q164.36440634863283,309.45983891015624,164.3283893486328,309.27876891015626Q164.29237334863282,309.0977019101563,164.2387823486328,308.92103391015627Q164.18519134863283,308.74436991015625,164.11454134863283,308.57380491015624Q164.04389234863282,308.4032439101562,163.95686534863282,308.24042491015626Q163.8698373486328,308.07760991015624,163.76726934863282,307.92410691015624Q163.66470334863283,307.77060491015624,163.54758434863282,307.6278949101563Q163.43046534863282,307.48518391015625,163.2999223486328,307.35464091015626Q163.1693803486328,307.2240979101563,163.02666934863282,307.1069789101563Q162.8839593486328,306.98986091015627,162.7304563486328,306.88729291015625Q162.57695434863282,306.7847269101562,162.4141383486328,306.69770091015624Q162.2513213486328,306.61067291015627,162.0807583486328,306.54002291015627Q161.9101963486328,306.46937391015626,161.73353034863283,306.4157829101562Q161.55686334863282,306.36219191015624,161.3757953486328,306.3261749101562Q161.19472834863282,306.29015891015626,161.01100134863282,306.27206291015625Q160.8272753486328,306.25396791015623,160.6426593486328,306.25396691015624Q160.45804434863282,306.25396791015623,160.27431634863282,306.27206391015625Q160.09059034863282,306.29015891015626,159.9095213486328,306.3261759101562Q159.72845334863283,306.36219191015624,159.5517873486328,306.4157829101562Q159.37512114863281,306.46937391015626,159.2045574486328,306.54002291015627Q159.0339946486328,306.61067291015627,158.87117764863282,306.69770091015624Q158.7083616486328,306.7847279101562,158.5548591486328,306.88729491015624Q158.40135764863282,306.98986291015626,158.2586479486328,307.10698091015627Q158.1159381486328,307.22409991015627,157.9853944486328,307.35464291015626Q157.85485174863283,307.48518591015625,157.73773284863282,307.6278949101563Q157.6206130486328,307.77060491015624,157.51804634863282,307.92410691015624Q157.4154791486328,308.07760991015624,157.3284516486328,308.24042691015626Q157.2414245486328,308.4032439101562,157.1707749486328,308.57380491015624Q157.10012624863282,308.74436991015625,157.04653544863282,308.92103391015627Q156.99294474863282,309.0977019101563,156.9569273486328,309.27876891015626Q156.9209113486328,309.45983891015624,156.90281584863283,309.6435639101563Q156.8847203486328,309.82729291015625,156.8847198486328,310.01190791015625Q156.8847203486328,310.19652391015626,156.90281584863283,310.38025091015624Q156.9209113486328,310.5639759101563,156.9569273486328,310.74504491015625Q156.99294474863282,310.92611291015623,157.04653544863282,311.10277891015625Q157.10012624863282,311.27944591015626,157.1707754486328,311.4500069101563Q157.2414250486328,311.62057091015623,157.3284521486328,311.78338591015626Q157.4154787486328,311.94620491015627,157.51804544863282,312.0997049101563Q157.6206130486328,312.2532079101562,157.7377319486328,312.39591791015624Q157.85485174863283,312.53862791015626,157.9853944486328,312.66916991015626Q158.1159381486328,312.79971291015625,158.2586479486328,312.91683191015625Q158.40135764863282,313.03395091015625,158.5548591486328,313.1365169101563Q158.7083616486328,313.23908591015623,158.87117864863282,313.32611291015627Q159.0339946486328,313.41313891015625,159.2045574486328,313.48378791015625Q159.37512114863281,313.55443791015625,159.5517873486328,313.60802891015624Q159.72845334863283,313.6616209101563,159.9095213486328,313.69763591015624Q160.09059034863282,313.73365391015625,160.27431734863282,313.75175091015626Q160.45804434863282,313.7698459101563,160.6426593486328,313.7698459101563ZM184.10164234863282,313.7698459101563C182.0261913486328,313.7698459101563,180.3437043486328,312.08735991015624,180.3437043486328,310.01190791015625C180.3437043486328,307.9364549101563,182.0261913486328,306.25396691015624,184.10164234863282,306.25396691015624C186.1770973486328,306.25396691015624,187.8595843486328,307.9364549101563,187.8595843486328,310.01190791015625C187.8595843486328,312.08735991015624,186.1770973486328,313.7698459101563,184.10164234863282,313.7698459101563Z" fill-rule="evenodd" fill="#FF6900" fill-opacity="1"/></g><ellipse cx="46.28909492492676" cy="86.35363960266113" rx="30.307741165161133" ry="30.307741165161133" fill="#FFFFFF" fill-opacity="1" filter="url(#master_svg2_359_000010)"/><g><path d="M66.69313022851563,91.5894448125Q65.60291622851562,92.4230998125,64.33789822851563,92.6986908125Q64.31468222851562,93.3781128125,64.14916222851562,94.1219558125Q63.69557222851562,96.0850298125,62.088630228515626,97.3766958125Q60.45573022851563,98.6892398125,58.390301228515625,98.6892398125L58.08534222851563,98.6892398125Q55.744861228515624,100.6418398125,52.880184228515624,100.6418398125Q51.231411228515626,100.6418398125,49.654800228515626,99.9770888125Q47.68852822851562,100.6418398125,45.859237228515624,100.6418398125Q43.13608722851562,100.6418398125,40.99658822851562,99.5035818125Q39.162042228515624,100.6418398125,36.883096228515626,100.6418398125Q35.284585228515624,100.6418398125,33.83152522851562,100.0319458125Q32.42606922851562,99.4420358125,31.346590228515623,98.3639948125Q30.267030728515625,97.2858758125,29.676237128515623,95.8820608125Q29.065370528515626,94.4305568125,29.065370528515626,92.8336928125L29.065370528515626,92.8132288125Q27.816110128515625,92.2938078125,26.948003328515625,91.5001218125L26.662728828515625,91.5001218125Q25.456778028515625,91.5001218125,24.350495328515624,91.03075981250001Q23.283793928515625,90.5781858125,22.459317528515626,89.7548048125Q21.634754058515625,88.9313378125,21.181491558515624,87.8658468125Q20.711334228515625,86.7606388125,20.711334228515625,85.5558208125Q20.711334228515625,84.3510018125,21.181491168515624,83.2457948125Q21.634753348515623,82.1803028125,22.459317228515626,81.35683631250001Q23.283796028515624,80.5334539125,24.350495328515624,80.0808821125Q25.456781828515624,79.6115160125,26.662728828515625,79.6115165125L26.966254728515626,79.6115174125Q28.048860528515625,78.7070279125,29.499646228515623,78.1414680125Q30.839769228515625,75.4070482125,33.37036822851562,73.7748760125Q36.017750228515624,72.0673828125,39.19378322851563,72.0673828125Q41.445701228515624,72.0673828125,43.51632722851562,73.0106245325Q45.54732122851563,73.93581251250001,47.10692222851563,75.6315501125Q47.56415322851562,76.0960560125,47.49689722851562,76.7341623125Q47.433031228515624,77.3400640125,46.941324228515626,77.7083559125L46.896675228515626,77.7417993125L46.84676322851563,77.7667203125Q46.401226228515625,77.9891920125,45.89621522851563,77.9001908125Q45.407423228515626,77.81404781250001,45.066316228515625,77.4733996125L45.04949422851563,77.4565973125L45.034008228515624,77.4385543125Q43.94153222851563,76.1656985125,42.398119228515625,75.4824130125Q40.88891222851562,74.8142719125,39.193781228515626,74.8142724125Q36.767915228515626,74.8142719125,34.78310922851563,76.1410451125Q32.78071322851562,77.4795766125,31.857682228515625,79.7533522125L31.848531228515625,79.7758927125L31.532469228515623,80.4071789125L30.900822228515626,80.5648804125Q29.448628428515626,80.96055121250001,28.547089528515624,81.9734344125L28.534994128515624,81.9870243125L28.021345628515625,82.4999878125L27.214714528515625,82.33887581249999L27.178189728515626,82.3267188125Q27.006763928515625,82.2696528125,26.662728828515625,82.2696528125Q25.385843728515624,82.2696528125,24.467303028515627,83.1869708125Q23.549103928515624,84.1039508125,23.549103928515624,85.3783108125Q23.549104728515626,86.6526738125,24.467303028515627,87.5696528125Q25.385843228515625,88.4869688125,26.662728828515625,88.4869708125Q27.050004028515623,88.4869708125,27.097164628515625,88.4634208125L27.171255128515625,88.4264238125L28.021346528515625,88.2566338125L28.538944728515624,88.7735458125L28.554430528515624,88.7915878125Q29.024197528515625,89.33892081249999,29.594687428515627,89.6733738125Q30.386611028515624,87.69639881250001,32.14251222851563,86.3611158125Q34.24893222851563,84.7592778125,36.88309322851563,84.7592798125L37.416328228515624,84.7592798125Q38.226213228515626,84.7592798125,38.952587228515625,85.0255438125L39.02315122851563,85.0255438125L39.11463122851562,85.0546128125Q40.773620228515625,85.5817688125,41.758564228515624,86.9195098125Q42.745615228515625,88.2601108125,42.745615228515625,89.9935478125L42.745615228515625,90.4813708125L42.73937422851563,90.5249788125Q42.566786228515625,91.7314948125,42.02450222851563,92.5483288125Q41.300207228515625,93.7019978125,40.143659228515624,94.4238798125L39.993229228515624,94.5177768125L39.89057522851563,94.5177768125Q39.068548228515624,94.9615478125,38.12731122851562,94.9615478125Q36.80948422851563,94.96154581249999,35.75976422851562,94.1857908125Q34.74221122851563,93.4338058125,34.34070622851563,92.2308898125L34.333171228515624,92.2083168125L34.32739122851562,92.1852288125Q34.13111722851563,91.4011798125,34.13111722851563,90.9698468125Q34.13111722851563,90.3603728125,34.605798228515624,89.91792881250001Q35.09725722851562,89.4598428125,35.69880122851563,89.5531308125Q36.26939122851562,89.5743718125,36.633299228515625,90.0038698125Q36.96888722851563,90.3999438125,36.96888722851563,90.9698468125Q36.96888722851563,91.3941768125,37.261049228515624,91.80228381250001Q37.45204922851563,91.9743688125,37.77086622851563,92.0380478125Q38.22923822851563,92.1296008125,38.788975228515625,91.9351848125Q39.599159228515624,91.2390898125,39.74862822851563,90.6420138125L39.75440822851563,90.6189248125L39.76194222851562,90.5963478125Q39.90784222851563,90.1592288125,39.90784222851563,89.9047928125Q39.90784422851563,89.1193108125,39.43331722851563,88.4920958125Q38.966312228515626,87.8748248125,38.23352422851562,87.6626368125Q37.60453822851562,87.5061698125,37.32745722851563,87.5061698125L36.88309322851563,87.5061698125Q35.184305228515626,87.5061698125,33.84463422851562,88.5135228125Q32.53584122851562,89.4976558125,32.05344522851563,91.0633638125L32.04595822851562,91.0876578125L32.03650522851562,91.1112598125Q31.814269228515627,91.6661068125,31.814270228515625,92.3899178125L31.814269228515627,92.4786738125Q31.814269228515627,94.55182881249999,33.265704228515624,96.0013328125Q34.71748422851562,97.45117781249999,36.79422022851563,97.45117781249999Q38.60767322851562,97.45117781249999,39.957447228515626,96.3482878125L40.742941228515626,95.7206818125L41.56866122851562,96.2154558125L41.58091522851562,96.2236158125Q43.42471322851563,97.4511738125,45.77036622851563,97.45117781249999Q47.649011228515626,97.45117781249999,49.066150228515625,96.7979848125L49.132444228515624,96.7674278125L49.85640522851563,96.6228298125L50.41369822851563,96.9011078125L50.42545322851562,96.9076268125Q51.56511522851562,97.5399308125,52.880184228515624,97.5399308125Q53.90121422851563,97.5399288125,54.84731722851563,97.1349988125Q55.76114622851563,96.7438798125,56.43746522851563,96.0443818125L56.76274122851562,95.2322748125L57.74943522851562,95.4293558125L57.78595722851563,95.44151281250001Q57.957386228515624,95.4985788125,58.30141822851562,95.4985788125Q59.30653422851562,95.4985768125,60.131534228515626,94.9395008125Q60.94452322851563,94.3885688125,61.276809228515624,93.5036278125Q61.503917228515625,92.9362178125,61.503917228515625,92.4786718125L61.503917228515625,92.3011628125Q61.50391022851562,91.0267998125,60.58571622851562,90.1098228125Q59.66717922851562,89.1925068125,58.390293228515624,89.1925068125Q58.00301322851563,89.1925068125,57.95585622851563,89.2160548125L57.881763228515624,89.2530498125L57.03167322851562,89.4228398125L56.53089922851562,88.9227318125Q55.759380228515624,88.1522328125,54.895206228515626,87.8257468125L54.129154228515624,87.5707358125L53.32762522851562,87.3706208125L53.32762522851562,86.9435868125Q53.19870722851562,86.8059228125,53.16329222851562,86.6048098125Q52.29719922851562,84.6801508125,50.725614228515624,83.4728398125L50.71908022851562,83.4678218125L50.71268422851563,83.4626318125Q48.695543228515625,81.8258819125,45.94810822851562,81.8258791125L45.14825622851562,81.8258791125Q44.61574722851563,81.8258791125,43.464813228515624,82.1534258125Q41.399118228515626,82.8443558125,40.12052922851562,84.3465278125Q39.736831228515626,84.8435338125,39.09380122851562,84.8435338125Q38.49325222851563,84.8435338125,38.045372228515625,84.39625381249999Q37.66380722851562,84.0151938125,37.66380722851562,83.4589958125Q37.66380722851562,82.9528858125,37.987814228515624,82.5214498125L38.00388522851563,82.5000488125L38.02174722851562,82.48011381250001Q39.22366522851563,81.1385755125,40.853285228515624,80.2525186125Q42.475715228515625,79.3703699125,44.25072522851562,79.0867457125L44.299253228515624,79.0789914125L44.34840022851563,79.0789914125Q44.589309228515624,79.0789914125,45.09691822851563,79.0367470125Q45.655782228515626,78.9902363125,45.94810822851562,78.9902363125Q47.335436228515626,78.9902363125,48.117615228515625,79.1801448125Q49.73900222851562,79.45503521250001,51.33203522851562,80.4095840125L51.34466322851563,80.4171514125L51.35691622851563,80.4253101125Q51.42643322851562,80.4715919125,51.60080922851563,80.5770454125Q52.119667228515624,80.8908234125,52.45926122851563,81.1610422125Q52.848655228515625,81.4543114125,53.49535722851562,82.1001548125L53.506878228515625,82.1116598125L53.51777622851562,82.1237528125Q54.808281228515625,83.5557428125,55.54701222851563,85.0515318125L55.57206722851563,85.0598728125L55.57992122851562,85.0627238125Q56.893234228515624,85.5396568125,58.08536122851562,86.5343728125L58.390293228515624,86.5343728125Q60.26900122851563,86.5343698125,61.808208228515625,87.6189658125Q63.10431622851563,88.5322628125,63.764499228515625,89.9283178125Q64.60149422851563,89.7507858125,65.24080322851563,89.1123318125L65.74158522851562,88.6122248125L66.45042822851562,88.7538018125L66.83358022851561,88.7538018125Q67.51057422851562,88.7538018125,68.01807822851563,88.2469748125Q68.52523822851563,87.7404898125,68.52523822851563,87.0652158125Q68.52523822851563,86.3899418125,68.01807822851563,85.8834578125Q67.51057422851562,85.3766298125,66.83358022851561,85.3766298125L66.45043222851562,85.3766298125L65.74158522851562,85.5182108125L65.24081022851563,85.0181058125Q64.62144122851564,84.3995608125,63.83969922851563,84.2043838125L63.20805722851563,84.0466828125L62.888325228515626,83.4080748125L62.876896228515626,83.3776268125Q62.344085228515624,81.9586792125,61.09395622851562,81.0955429125Q59.83870322851563,80.2288675125,58.301800228515624,80.2288666125Q56.55747222851563,80.2288675125,55.31631422851562,81.2430038125L55.306198228515626,81.2512722125L55.29573422851563,81.2591057125Q54.821148228515625,81.6145763125,54.21721222851563,81.5193462125Q53.62595022851563,81.4261131125,53.27429922851562,80.9578714125Q52.91792722851562,80.4833383125,53.013435228515625,79.8792772125Q53.106285228515624,79.2920070125,53.569870228515626,78.9414267125Q55.54639822851563,77.3932238125,58.301800228515624,77.3932238125Q60.542625228515625,77.3932238125,62.481518228515625,78.6461387125Q64.28860822851563,79.8138809125,65.23231122851563,81.6784944125Q65.93729022851562,81.9420195125,66.69731122851562,82.5409858125L66.74470922851563,82.5409858125Q68.60057822851562,82.5409888125,69.93718722851563,83.8758138125Q71.27413222851563,85.21097681250001,71.27413922851562,87.0652158125Q71.27414322851563,88.91945481249999,69.93718722851563,90.2546178125Q68.60057822851562,91.5894448125,66.74470922851563,91.5894448125L66.69313022851563,91.5894448125Z" fill-rule="evenodd" fill="#FF6900" fill-opacity="1"/></g><ellipse cx="295.13977241516113" cy="86.35363960266113" rx="30.307741165161133" ry="30.307741165161133" fill="#FFFFFF" fill-opacity="1" filter="url(#master_svg3_359_000015)"/><g><path d="M297.308792,67.18845081329346L297.308792,67.22506205329346C303.565765,67.61558720329346,309.253529,70.99562361329346,312.594105,76.30858321329346C315.934677,81.62154381329346,316.520485,88.21919581329345,314.1684,94.03913581329346L311.507122,94.03913581329346C312.559933,91.81561381329345,313.149704,89.33581081329345,313.149704,86.71444581329345C313.149704,85.88459081329346,313.091213,85.07182181329345,312.979111,84.27369781329345L308.126917,84.27369781329345C308.546589,87.58301981329346,308.110212,90.94483081329346,306.859644,94.03669681329346C306.262562,95.17652581329345,305.663046,95.66223581329345,305.056213,95.49870381329346C304.149628,95.25462981329346,304.010715,94.55413381329346,304.19837,94.03913581329346C304.38358900000003,93.52414081329346,305.736158,89.75317881329346,305.828766,87.37588781329346L305.838516,86.71444581329345C305.838516,85.88459081329346,305.777588,85.06938281329346,305.665483,84.27369781329345L297.308792,84.27369781329345L297.308792,85.49407081329346C297.308792,86.16806681329345,296.763237,86.71444581329345,296.090258,86.71444581329345C295.417282,86.71444581329345,294.871727,86.16806681329345,294.871727,85.49407081329346L294.871727,84.27369781329345L286.512599,84.27369781329345C286.3980598,85.08220381329346,286.3410521,85.89784381329346,286.3420038,86.71444581329345L286.3420038,87.93482081329346C286.3420038,88.60881681329346,285.7964497,89.15519581329346,285.1234722,89.15519581329346C284.4504967,89.15519581329346,283.9049416,88.60881681329346,283.9049416,87.93482081329346L283.9049416,86.71444581329345C283.9049416,85.88703281329346,283.9561195,85.07426381329346,284.0560389,84.27369781329345L279.2014081,84.27369781329345C279.0868692,85.08220381329346,279.0298607,85.89784381329346,279.0308135,86.71444581329345L279.0308135,87.93482081329346C279.0308135,88.60881681329346,278.4852583,89.15519581329346,277.8122817,89.15519581329346C277.13930529,89.15519581329346,276.59375,88.60881681329346,276.59375,87.93482081329346L276.59375,86.71444581329345C276.59292602458,76.40380101329346,284.5967789,67.86947739329345,294.871727,67.22506205329346L294.871727,67.18845081329346L297.308792,67.18845081329346ZM293.653221,69.79977891329345L293.209675,69.87300131329346C291.11821,70.22809241329345,289.111884,70.97321991329346,287.294922,72.06967591329345C287.972425,72.47484061329345,288.666988,72.83363051329346,289.390797,73.14360571329345C290.649294,71.83575631329346,292.083951,70.71028331329346,293.653221,69.79977891329345ZM298.53125,69.80368521329346L298.536669,69.80689881329346L298.53125,69.80612591329346L298.53125,69.80368521329346ZM298.536669,69.80689881329346C300.780605,70.12733101329346,302.936623,70.89918641329346,304.874928,72.07602311329346C304.207172,72.47630591329346,303.515045,72.83265491329345,302.793674,73.14019011329346C301.587328,71.89052581329345,300.217697,70.80439261329346,298.716467,69.91351891329346L298.536669,69.80689881329346ZM292.081875,73.93156001329346C292.939722,73.17004631329345,293.873117,72.49151801329346,294.872313,71.91306021329346L294.869875,74.46608451329345C293.887739,74.39774321329345,292.925098,74.24397561329346,291.994141,74.01454541329346L292.081875,73.93156001329346ZM297.311031,74.46608451329345L297.30859399999997,71.91306021329346L297.311031,71.91550111329346C298.340939,72.51266571329346,299.305588,73.21618221329345,300.189203,74.01454541329346C299.244453,74.24712801329346,298.28154,74.39819331329346,297.311031,74.46608451329345ZM307.018351,73.59274771329346L306.540686,73.91248611329345C305.864243,74.34358791329346,305.16184,74.73240801329345,304.4375,75.07672361329345C305.940702,77.09853171329345,307.036634,79.39401681329346,307.664173,81.83515881329346L312.443253,81.83271781329346C311.482944,78.61174581329345,309.596027,75.74567981329346,307.018351,73.59274771329346ZM285.1607475,73.59665391329345L284.8244333,73.88466211329346C282.4179168,76.00311371329346,280.6553311,78.75714181329346,279.7382812,81.83174181329346L284.5198002,81.83174181329346C285.1478653,79.39079381329346,286.2437506,77.09540561329345,287.746472,75.07330751329346C286.848567,74.64869071329346,285.9848824,74.15499351329346,285.1631851,73.59665391329345L285.1607475,73.59665391329345ZM301.624634,76.15716171329346L302.075491,76.01071641329345C303.462261,77.73465981329346,304.500299,79.71273481329345,305.131569,81.83434481329346L297.30859399999997,81.83434481329346L297.311031,76.91379361329345C298.772766,76.82512191329346,300.219814,76.57130141329345,301.624634,76.15716171329346ZM289.980616,76.16839031329346L290.107343,76.01462271329346C291.651702,76.51295761329345,293.252323,76.81552691329345,294.871803,76.91525931329346L294.871803,81.83336881329346L287.048828,81.83336881329346C287.661132,79.77697381329345,288.655837,77.85494281329346,289.980616,76.16839031329346ZM293.324692,89.15524781329346C293.845531,89.15927781329346,294.322573,89.44792881329346,294.568419,89.90780781329346C294.814266,90.36768781329346,294.789646,90.92533181329345,294.50423,91.36168581329346L294.355568,91.54962281329345L291.172763,94.94714681329346C293.719494,96.47261481329346,296.431946,97.19263581329346,299.580631,97.19263581329346C300.250824,97.19263581329346,300.955135,97.15846681329346,301.742308,97.09744781329346C306.426344,96.71180981329346,310.091686,96.18704681329345,311.507618,94.03918981329346L314.168896,94.03918981329346L313.96418,94.55418681329346L313.949558,94.59567881329346L313.817959,94.87392481329346C310.15261499999997,103.00894681329345,301.661882,105.44969281329347,295.871422,105.62299081329346L295.349892,105.63030681329346C290.819389,105.63030681329346,287.190602,103.31403781329345,285.2165794,101.70802381329347L284.6633663,101.23695881329346L281.4586282,104.44654581329345C281.0856314,104.82768381329345,280.5305579,104.96681681329346,280.0222712,104.80657681329345C279.5139842,104.64634081329345,279.1385674,104.21386481329345,279.0508096,103.68747381329345L279.0313132,103.44339881329346L279.0313132,90.58064581329346C279.0247176,89.87754681329346,279.5360906,89.27691981329346,280.2303481,89.17233381329345L280.4521213,89.15524781329346L293.324692,89.15524781329346ZM281.875,91.99509181329346L290.024541,91.99509181329346L287.935977,94.22593581329346L287.787317,94.41875581329346C287.609175,94.68878081329346,287.529153,95.01193881329345,287.560669,95.33403681329347C287.597509,95.74148081329346,287.809141,96.11284381329345,288.140691,96.35183081329346C291.55258,98.83407281329346,295.288599,100.04468281329346,299.57052,100.04468281329346C300.316261,100.04468281329346,301.098558,100.01051381329346,301.961279,99.93729081329346C303.179758,99.84031381329345,304.385557,99.62200681329347,305.56082200000003,99.28561081329346C305.256189,99.52724581329346,304.944244,99.74691081329345,304.627424,99.96658081329346L304.5007,100.07397181329345C301.7626,101.81767381329345,298.5917,102.75871781329346,295.347088,102.79052481329346C290.819024,102.79052481329346,287.243851,99.78108281329347,286.0862465,98.68274581329345L285.5257215,98.13113681329345C285.2868891,97.93831681329345,284.9846935,97.82848281329346,284.6776237,97.81627981329345L284.4168572,97.83336381329346C284.1219053,97.88304781329346,283.8495092,98.02286281329346,283.6369972,98.23364781329346L281.875,99.99831081329346L281.875,91.99509181329346Z" fill-rule="evenodd" fill="#FF6900" fill-opacity="1"/></g><ellipse cx="173.99999618530273" cy="156.99999618530273" rx="49.999996185302734" ry="49.999996185302734" fill="#FFFFFF" fill-opacity="1" filter="url(#master_svg4_359_000029)"/><ellipse cx="174.00000381469727" cy="157.00000381469727" rx="38.260746002197266" ry="38.260746002197266" fill="#FF6900" fill-opacity="1"/><ellipse cx="174.00000381469727" cy="157.00000381469727" rx="37.010746002197266" ry="37.010746002197266" fill-opacity="0" stroke-opacity="1" stroke="#FF6900" fill="none" stroke-width="2.5"/><path d="M160.2751676875,160.590360859375Q159.0687946875,160.503530859375,157.9324302875,159.949321859375Q156.3047766875,159.214612859375,155.0514864875,157.877086859375Q153.79819588750001,156.539559859375,153.1097573875,154.802517859375Q152.3959350875,153.001418859375,152.3959350875,151.035125759375Q152.3959350875,149.068831959375,153.1097573875,147.267737359375Q153.7981953875,145.530689259375,155.0514864875,144.193164159375Q156.3047766875,142.855639059375,157.9324302875,142.120929599375Q159.6200966875,141.359130859375,161.4625616875,141.359130859375L177.1342906875,141.359130859375L172.9666326875,148.038622359375L161.2489616875,148.038622359375C159.7628216875,148.038622359375,158.5580676875,149.35894055937501,158.5580676875,150.987637559375C158.5580676875,152.616334859375,159.7628216875,153.93665385937499,161.2489616875,153.93665385937499Q165.8198856875,153.871287859375,166.9162066875,154.043479859375Q168.0125296875,154.215669859375,168.9931126875,154.576631859375Q170.5747226875,155.290554859375,171.79250368750002,156.590183859375Q173.0102846875,157.889808859375,173.6792446875,159.577718859375Q174.3729056875,161.327933859375,174.3729056875,163.238521859375Q174.3729056875,165.149112859375,173.6792446875,166.899329859375Q173.0102846875,168.587234859375,171.79250368750002,169.886870859375Q170.5747226875,171.186498859375,168.9931126875,171.900424859375Q167.3531226875,172.640700859375,165.5628586875,172.640700859375L148.5341796875,172.640397859375L152.3175341875,166.530833859375L166.0458926875,166.530490859375C167.5320296875,166.530490859375,168.7367796875,165.210168859375,168.7367796875,163.581473859375C168.7367796875,161.952779859375,167.5320296875,160.632459859375,166.0458926875,160.632459859375Q161.4815396875,160.677186859375,160.2751676875,160.590360859375Z" fill-rule="evenodd" fill="#FFFFFF" fill-opacity="1"/><path d="M198.3301864375,148.03881693046876L176.3891482375,148.03881693046876L180.5520095375,141.36932373046875L200.3860494375,141.36932373046875L198.3301864375,148.03881693046876ZM173.467842586375,172.64079473046874C176.0602333375,170.25437773046875,177.5571694375,166.79872473046873,177.5571694375,163.20065673046875C177.5571694375,159.80605673046875,176.2250151375,156.52854873046874,173.8829787375,154.16102473046874L196.44718943750001,154.16102473046874L194.4004474375,160.84051473046875L183.3840723375,160.84051473046875L180.5474491375,172.64079473046874L173.467842586375,172.64079473046874Z" fill-rule="evenodd" fill="#FFFFFF" fill-opacity="1"/><ellipse cx="174.46018981933594" cy="157.46018981933594" rx="96.46018981933594" ry="96.46018981933594" fill-opacity="0" stroke-opacity="0.30000001192092896" stroke="#FFFFFF" fill="none" stroke-width="2"/></g></svg>