<svg xmlns="http://www.w3.org/2000/svg" xmlns:xlink="http://www.w3.org/1999/xlink" fill="none" version="1.1" width="28" height="28" viewBox="0 0 28 28"><g><g><g><ellipse cx="14" cy="14" rx="14" ry="14" fill="#FFFFFF" fill-opacity="0.30000001192092896"/></g><g><path d="M10.50548,10.2685C10.37402,12.30529,11.9734,14.01357,13.98904,14.01357C15.91706,14.01357,17.494500000000002,12.4367,17.494500000000002,10.509409999999999C17.494500000000002,8.51641,15.82942,6.8957370000000004,13.79186,7.00524208C12.03912,7.114747,10.61502,8.51641,10.50548,10.2685ZM7,20.4087C7,20.7372,7.262911,21,7.5915479999999995,21L20.4085,21C20.737099999999998,21,21,20.7372,21,20.4087L20.978099999999998,18.656599999999997C20.978099999999998,16.31318,16.31142,15.15242,13.98904,15.15242C11.66667,15.15242,7,16.335079999999998,7,18.656599999999997L7,20.4087Z" fill="#FFFFFF" fill-opacity="1"/></g></g></g></svg>